<svg width="36" height="36" viewBox="0 0 36 36" fill="none" xmlns="http://www.w3.org/2000/svg">
<circle cx="18" cy="18" r="18" fill="url(#paint0_linear_308_26)"/>
<path opacity="0.3" d="M27.8995 10.0008H8.10086L8.83419 25.9497H27.1661L27.8995 10.0008Z" fill="white"/>
<path opacity="0.3" d="M27.8995 10.0008H8.10086L17.2208 16.8062H18.9167L27.8995 10.0008Z" fill="white"/>
<path opacity="0.1" d="M9.75 25.95L18 18.525L26.25 25.95H9.75Z" fill="white"/>
<path fill-rule="evenodd" clip-rule="evenodd" d="M9.75091 11.376C9.75091 10.6171 9.13605 10.0011 8.376 10.0011C7.61706 10.0011 7.0011 10.6171 7.0011 11.376C7.0011 14.304 7.0011 21.1444 7.0011 24.3001C7.0011 25.212 7.74025 25.95 8.65098 25.95C9.23614 25.95 9.75091 25.95 9.75091 25.95C9.75091 25.95 9.75091 15.2467 9.75091 11.376Z" fill="white"/>
<path fill-rule="evenodd" clip-rule="evenodd" d="M26.2496 11.3757C26.2496 10.6168 26.8656 10.0008 27.6245 10.0008C27.6256 10.0008 27.6267 10.0008 27.6267 10.0008C28.3857 10.0008 28.9994 10.6157 28.9994 11.3735C28.9994 14.3004 28.9994 21.143 28.9994 24.2998C28.9994 25.2116 28.2614 25.9497 27.3495 25.9497C26.7655 25.9497 26.2496 25.9497 26.2496 25.9497C26.2496 25.9497 26.2496 15.2463 26.2496 11.3757Z" fill="white"/>
<path fill-rule="evenodd" clip-rule="evenodd" d="M7.68713 12.5658C7.37145 12.3832 7.14156 12.084 7.04697 11.7321C6.95238 11.3801 7.00187 11.0061 7.18446 10.6904L7.18556 10.6882C7.36815 10.3725 7.66843 10.1427 8.0204 10.0481C8.37238 9.95348 8.74745 10.003 9.06313 10.1856L18 15.3453L26.9391 10.1845C27.2547 10.0019 27.6287 9.95238 27.9807 10.047C28.3327 10.1416 28.6319 10.3714 28.8144 10.6871L28.8155 10.6882C28.9981 11.0039 29.0476 11.3801 28.953 11.7321C28.8584 12.084 28.6275 12.3843 28.3118 12.5669L20.7498 16.9325L18 18.5208L15.2502 16.9325L7.68713 12.5658Z" fill="white"/>
<defs>
<linearGradient id="paint0_linear_308_26" x1="-15" y1="18" x2="40.5" y2="39.75" gradientUnits="userSpaceOnUse">
<stop stop-color="#0B3E0D"/>
<stop offset="1" stop-color="#13F01C"/>
</linearGradient>
</defs>
</svg>
