<svg width="28" height="28" viewBox="0 0 28 28" fill="none" xmlns="http://www.w3.org/2000/svg">
<circle cx="14" cy="14" r="14" fill="url(#paint0_linear_308_27)"/>
<path opacity="0.3" d="M21.6996 7.7784H6.30067L6.87104 20.1831H21.1292L21.6996 7.7784Z" fill="white"/>
<path opacity="0.3" d="M21.6996 7.7784H6.30067L13.394 13.0715H14.713L21.6996 7.7784Z" fill="white"/>
<path opacity="0.1" d="M7.58334 20.1833L14 14.4083L20.4167 20.1833H7.58334Z" fill="white"/>
<path fill-rule="evenodd" clip-rule="evenodd" d="M7.58401 8.84799C7.58401 8.2577 7.10579 7.77863 6.51464 7.77863C5.92435 7.77863 5.44527 8.2577 5.44527 8.84799C5.44527 11.1253 5.44527 16.4456 5.44527 18.9001C5.44527 19.6093 6.02016 20.1833 6.72851 20.1833C7.18364 20.1833 7.58401 20.1833 7.58401 20.1833C7.58401 20.1833 7.58401 11.8585 7.58401 8.84799Z" fill="white"/>
<path fill-rule="evenodd" clip-rule="evenodd" d="M20.4164 8.84777C20.4164 8.25747 20.8954 7.7784 21.4857 7.7784C21.4866 7.7784 21.4874 7.7784 21.4874 7.7784C22.0777 7.7784 22.5551 8.25662 22.5551 8.84605C22.5551 11.1225 22.5551 16.4446 22.5551 18.8998C22.5551 19.609 21.9811 20.1831 21.2719 20.1831C20.8176 20.1831 20.4164 20.1831 20.4164 20.1831C20.4164 20.1831 20.4164 11.8583 20.4164 8.84777Z" fill="white"/>
<path fill-rule="evenodd" clip-rule="evenodd" d="M5.97888 9.7734C5.73335 9.63139 5.55455 9.3987 5.48098 9.12494C5.40741 8.85118 5.4459 8.56031 5.58792 8.31478L5.58877 8.31307C5.73078 8.06755 5.96433 7.88875 6.23809 7.81518C6.51185 7.7416 6.80358 7.7801 7.0491 7.92211L14 11.9352L20.9526 7.92126C21.1981 7.77924 21.489 7.74075 21.7628 7.81432C22.0365 7.88789 22.2692 8.06669 22.4112 8.31222L22.4121 8.31307C22.5541 8.5586 22.5926 8.85118 22.519 9.12494C22.4455 9.3987 22.2658 9.63225 22.0203 9.77426L16.1387 13.1697L14 14.4051L11.8613 13.1697L5.97888 9.7734Z" fill="white"/>
<defs>
<linearGradient id="paint0_linear_308_27" x1="-11.6667" y1="14" x2="31.5" y2="30.9167" gradientUnits="userSpaceOnUse">
<stop stop-color="#0B3E0D"/>
<stop offset="1" stop-color="#13F01C"/>
</linearGradient>
</defs>
</svg>
