<svg width="28" height="28" viewBox="0 0 28 28" fill="none" xmlns="http://www.w3.org/2000/svg">
<circle cx="14" cy="14" r="14" fill="url(#paint0_linear_307_11)"/>
<path fill-rule="evenodd" clip-rule="evenodd" d="M17.6558 20.8688C18.681 21.3173 19.0654 20.3776 19.0654 20.3776L21.7778 6.75167C21.7564 5.83331 20.5177 6.3886 20.5177 6.3886L5.33275 12.3473C5.33275 12.3473 4.6066 12.6035 4.67068 13.052C4.73475 13.5005 5.31139 13.7141 5.31139 13.7141L9.13433 14.9955C9.13433 14.9955 10.2876 18.7758 10.5225 19.5019C10.7361 20.2067 10.9283 20.2281 10.9283 20.2281C11.1419 20.3135 11.3341 20.164 11.3341 20.164L13.8116 17.9215L17.6558 20.8688ZM18.3179 9.165C18.3179 9.165 18.8519 8.84464 18.8305 9.165C18.8305 9.165 18.9159 9.20771 18.6383 9.50671C18.382 9.763 12.3379 15.1877 11.5263 15.9139C11.4623 15.9566 11.4196 16.0207 11.4196 16.1061L11.1846 18.1137C11.1419 18.3272 10.8643 18.3486 10.8002 18.1564L9.79642 14.8674C9.7537 14.7392 9.79642 14.5897 9.92456 14.5043L18.3179 9.165Z" fill="white"/>
<defs>
<linearGradient id="paint0_linear_307_11" x1="-11.6667" y1="14" x2="31.5" y2="30.9167" gradientUnits="userSpaceOnUse">
<stop stop-color="#0B3E0D"/>
<stop offset="1" stop-color="#13F01C"/>
</linearGradient>
</defs>
</svg>
