<svg width="48" height="48" viewBox="0 0 48 48" fill="none" xmlns="http://www.w3.org/2000/svg">
<circle cx="24" cy="24" r="24" fill="url(#paint0_linear_2_45)"/>
<path fill-rule="evenodd" clip-rule="evenodd" d="M29.255 35.9671C30.9325 36.701 31.5616 35.1633 31.5616 35.1633L36 12.8664C35.9651 11.3636 33.9381 12.2722 33.9381 12.2722L9.08994 22.0228C9.08994 22.0228 7.90171 22.4421 8.00655 23.1761C8.1114 23.91 9.055 24.2595 9.055 24.2595L15.3107 26.3563C15.3107 26.3563 17.1979 32.5422 17.5823 33.7304C17.9318 34.8837 18.2464 34.9186 18.2464 34.9186C18.5958 35.0584 18.9104 34.8138 18.9104 34.8138L22.9643 31.1442L29.255 35.9671ZM30.3384 16.8155C30.3384 16.8155 31.2121 16.2912 31.1772 16.8155C31.1772 16.8155 31.317 16.8854 30.8626 17.3746C30.4433 17.794 20.5529 26.6708 19.2249 27.8591C19.1201 27.929 19.0502 28.0338 19.0502 28.1736L18.6657 31.4587C18.5958 31.8082 18.1415 31.8432 18.0367 31.5286L16.3941 26.1466C16.3242 25.9369 16.3941 25.6923 16.6038 25.5525L30.3384 16.8155Z" fill="white"/>
<defs>
<linearGradient id="paint0_linear_2_45" x1="-20" y1="24" x2="54" y2="53" gradientUnits="userSpaceOnUse">
<stop stop-color="#0B3E0D"/>
<stop offset="1" stop-color="#13F01C"/>
</linearGradient>
</defs>
</svg>
