<svg width="36" height="36" viewBox="0 0 36 36" fill="none" xmlns="http://www.w3.org/2000/svg">
<circle cx="18" cy="18" r="18" fill="url(#paint0_linear_306_10)"/>
<path fill-rule="evenodd" clip-rule="evenodd" d="M22.7004 26.8313C24.0184 27.4079 24.5127 26.1997 24.5127 26.1997L28 8.68071C27.9725 7.49996 26.3799 8.21391 26.3799 8.21391L6.85638 15.875C6.85638 15.875 5.92277 16.2045 6.00515 16.7812C6.08753 17.3578 6.82892 17.6324 6.82892 17.6324L11.7441 19.28C11.7441 19.28 13.2269 24.1403 13.529 25.0739C13.8036 25.98 14.0507 26.0075 14.0507 26.0075C14.3253 26.1173 14.5724 25.9251 14.5724 25.9251L17.7577 23.0419L22.7004 26.8313ZM23.5516 11.7836C23.5516 11.7836 24.2381 11.3717 24.2106 11.7836C24.2106 11.7836 24.3205 11.8385 23.9635 12.2229C23.634 12.5524 15.863 19.5271 14.8196 20.4607C14.7372 20.5156 14.6823 20.598 14.6823 20.7078L14.3802 23.289C14.3253 23.5636 13.9683 23.5911 13.886 23.3439L12.5954 19.1152C12.5405 18.9504 12.5954 18.7582 12.7601 18.6484L23.5516 11.7836Z" fill="white"/>
<defs>
<linearGradient id="paint0_linear_306_10" x1="-15" y1="18" x2="40.5" y2="39.75" gradientUnits="userSpaceOnUse">
<stop stop-color="#0B3E0D"/>
<stop offset="1" stop-color="#13F01C"/>
</linearGradient>
</defs>
</svg>
