<svg width="36" height="36" viewBox="0 0 36 36" fill="none" xmlns="http://www.w3.org/2000/svg">
<circle cx="18" cy="18" r="18" fill="url(#paint0_linear_309_70)"/>
<path d="M26.9503 9.09153C26.3548 8.54413 23.9444 6.79149 18.5712 6.76748C18.5712 6.76748 12.2377 6.38334 9.15015 9.21638C7.43112 10.9354 6.8261 13.4467 6.76367 16.5679C6.70125 19.6842 6.61962 25.5279 12.2521 27.1125H12.2569L12.2521 29.5278C12.2521 29.5278 12.2185 30.5074 12.8619 30.7042C13.6398 30.9443 14.1008 30.2001 14.845 29.3982C15.2532 28.9564 15.815 28.313 16.2423 27.8184C20.0933 28.1401 23.056 27.4006 23.3922 27.2902C24.17 27.0357 28.5733 26.4739 29.2887 20.6302C30.0282 14.6184 28.9286 10.8106 26.9503 9.09153ZM27.6033 20.2076C26.9983 25.0862 23.4306 25.3935 22.7727 25.6048C22.4942 25.696 19.8917 26.3442 16.6169 26.1282C16.6169 26.1282 14.1776 29.0716 13.4189 29.8351C13.2989 29.9552 13.1596 30.0032 13.0684 29.9792C12.9387 29.9456 12.9003 29.7919 12.9051 29.5662C12.9051 29.2397 12.9243 25.5472 12.9243 25.5472C12.9195 25.5472 12.9195 25.5472 12.9243 25.5472C8.15618 24.2267 8.43469 19.252 8.48751 16.6495C8.54032 14.0469 9.0301 11.9102 10.485 10.4744C13.0924 8.11197 18.4752 8.4625 18.4752 8.4625C23.0176 8.48171 25.1928 9.85021 25.697 10.3064C27.3728 11.7469 28.2275 15.1802 27.6033 20.2076Z" fill="white"/>
<path d="M20.7848 16.7407C20.6264 16.7407 20.4919 16.6159 20.4823 16.4526C20.4295 15.4203 19.9445 14.9161 18.9554 14.8633C18.7873 14.8536 18.6576 14.7096 18.6672 14.5415C18.6769 14.3735 18.8209 14.2438 18.989 14.2534C20.295 14.3255 21.0249 15.0745 21.0921 16.419C21.1017 16.5871 20.9721 16.7311 20.804 16.7359C20.7944 16.7407 20.7896 16.7407 20.7848 16.7407Z" fill="white"/>
<path d="M22.3406 17.2594H22.3358C22.1677 17.2546 22.0333 17.1154 22.0381 16.9473C22.0621 15.9101 21.7644 15.0698 21.1305 14.3784C20.5015 13.6869 19.6324 13.3124 18.4848 13.2308C18.3167 13.2164 18.1918 13.0723 18.2063 12.9042C18.2207 12.7362 18.3647 12.6113 18.5328 12.6257C19.8292 12.7218 20.852 13.1731 21.5819 13.9702C22.3166 14.7721 22.6719 15.7757 22.6479 16.9617C22.6431 17.1298 22.5038 17.2594 22.3406 17.2594Z" fill="white"/>
<path d="M23.9347 17.8835C23.7667 17.8835 23.6322 17.7491 23.6322 17.581C23.6178 15.7227 23.0848 14.3062 21.9996 13.245C20.9288 12.1982 19.57 11.6652 17.971 11.6508C17.8029 11.6508 17.6685 11.5116 17.6685 11.3435C17.6685 11.1755 17.8077 11.041 17.971 11.041C19.7332 11.0554 21.2314 11.646 22.4174 12.8081C23.6082 13.9701 24.2181 15.5739 24.2373 17.5714C24.2421 17.7443 24.1076 17.8835 23.9347 17.8835C23.9396 17.8835 23.9396 17.8835 23.9347 17.8835Z" fill="white"/>
<path d="M19.0274 20.5004C19.0274 20.5004 19.4547 20.5389 19.6852 20.2556L20.1318 19.6937C20.3478 19.4152 20.8712 19.2376 21.3802 19.5209C21.6635 19.6793 22.1773 19.9963 22.4942 20.2315C22.8352 20.4812 23.5266 21.0574 23.5314 21.0622C23.8627 21.3408 23.9396 21.7489 23.7139 22.1859C23.7139 22.1859 23.7139 22.1907 23.7139 22.1955C23.4834 22.6036 23.1713 22.9878 22.7823 23.3431C22.7775 23.3431 22.7775 23.3479 22.7727 23.3479C22.451 23.6168 22.1341 23.7704 21.8268 23.8041C21.7884 23.8137 21.7452 23.8137 21.6875 23.8137C21.5531 23.8137 21.4186 23.7944 21.2842 23.7512L21.2746 23.7368C20.7944 23.6024 19.9973 23.2663 18.672 22.5316C17.8077 22.0562 17.0923 21.5712 16.4824 21.0863C16.1607 20.8318 15.8342 20.5485 15.4981 20.2123C15.4885 20.2027 15.4741 20.1883 15.4645 20.1787C15.4549 20.1691 15.4405 20.1547 15.4308 20.1451C15.4212 20.1355 15.4068 20.1211 15.3972 20.1115C15.3876 20.1019 15.3732 20.0875 15.3636 20.0779C15.0323 19.7418 14.7442 19.4152 14.4897 19.0935C14.0047 18.4885 13.5197 17.7682 13.0444 16.9039C12.3097 15.5738 11.9736 14.7768 11.8391 14.3014L11.8247 14.2918C11.7815 14.1573 11.7623 14.0229 11.7623 13.8884C11.7623 13.8308 11.7623 13.7876 11.7719 13.7492C11.8103 13.4371 11.964 13.1249 12.2281 12.8032C12.2281 12.7984 12.2329 12.7984 12.2329 12.7936C12.5882 12.3999 12.9723 12.0926 13.3805 11.8621C13.3805 11.8621 13.3853 11.8621 13.3901 11.8621C13.8223 11.6364 14.2304 11.7132 14.5137 12.0446C14.5137 12.0446 15.0947 12.7408 15.3444 13.0817C15.5797 13.4034 15.8966 13.9124 16.0551 14.1957C16.3384 14.7047 16.1607 15.2281 15.8822 15.4442L15.3204 15.8908C15.0371 16.1212 15.0755 16.5486 15.0755 16.5486C15.0755 16.5486 15.9062 19.7082 19.0274 20.5004Z" fill="white"/>
<defs>
<linearGradient id="paint0_linear_309_70" x1="-15" y1="18" x2="40.5" y2="39.75" gradientUnits="userSpaceOnUse">
<stop stop-color="#0B3E0D"/>
<stop offset="1" stop-color="#13F01C"/>
</linearGradient>
</defs>
</svg>
