<svg width="48" height="48" viewbox="0 0 48 48" fill="white" xmlns="http://www.w3.org/2000/svg">
<circle cx="24" cy="24" r="24" fill="url(#paint0_linear_309_62)"/>
<path d="M35.9337 12.122C35.1398 11.3922 31.9258 9.05532 24.7616 9.02331C24.7616 9.02331 16.3169 8.51112 12.2002 12.2885C9.90816 14.5805 9.10146 17.929 9.01823 22.0905C8.935 26.2456 8.82616 34.0373 16.3361 36.15H16.3425L16.3361 39.3704C16.3361 39.3704 16.2913 40.6765 17.1492 40.939C18.1864 41.2591 18.801 40.2667 19.7934 39.1975C20.3376 38.6085 21.0866 37.7506 21.6565 37.0912C26.7911 37.5201 30.7414 36.5342 31.1895 36.3869C32.2267 36.0476 38.0977 35.2985 39.0516 27.5069C40.0376 19.4911 38.5714 14.4141 35.9337 12.122ZM36.8044 26.9435C35.9977 33.4482 31.2408 33.858 30.3636 34.1397C29.9923 34.2613 26.5222 35.1257 22.1558 34.8376C22.1558 34.8376 18.9034 38.7622 17.8919 39.7802C17.7318 39.9402 17.5462 40.0042 17.4245 39.9722C17.2516 39.9274 17.2004 39.7225 17.2068 39.4216C17.2068 38.9863 17.2324 34.0629 17.2324 34.0629C17.226 34.0629 17.226 34.0629 17.2324 34.0629C10.8749 32.3022 11.2462 25.6694 11.3167 22.1993C11.3871 18.7293 12.0401 15.8802 13.98 13.9659C17.4565 10.816 24.6335 11.2833 24.6335 11.2833C30.6902 11.3089 33.5904 13.1336 34.2627 13.7418C36.4971 15.6625 37.6367 20.2402 36.8044 26.9435Z"/>
<path d="M27.7131 22.321C27.5018 22.321 27.3226 22.1545 27.3097 21.9368C27.2393 20.5603 26.5927 19.8881 25.2738 19.8177C25.0497 19.8049 24.8769 19.6128 24.8897 19.3887C24.9025 19.1646 25.0945 18.9918 25.3186 19.0046C27.0601 19.1006 28.0332 20.0994 28.1228 21.892C28.1357 22.1161 27.9628 22.3082 27.7387 22.3146C27.7259 22.321 27.7195 22.321 27.7131 22.321Z"/>
<path d="M29.7874 23.0126H29.781C29.5569 23.0062 29.3777 22.8205 29.3841 22.5964C29.4161 21.2135 29.0191 20.0931 28.174 19.1712C27.3353 18.2492 26.1765 17.7499 24.6463 17.641C24.4223 17.6218 24.2558 17.4297 24.275 17.2057C24.2942 16.9816 24.4863 16.8151 24.7104 16.8343C26.439 16.9624 27.8027 17.5642 28.7759 18.627C29.7554 19.6962 30.2292 21.0343 30.1972 22.6156C30.1908 22.8397 30.0051 23.0126 29.7874 23.0126Z"/>
<path d="M31.913 23.8447C31.6889 23.8447 31.5097 23.6654 31.5097 23.4413C31.4904 20.9636 30.7798 19.075 29.3329 17.66C27.9051 16.2643 26.0933 15.5537 23.9613 15.5345C23.7372 15.5345 23.5579 15.3488 23.5579 15.1247C23.5579 14.9006 23.7436 14.7214 23.9613 14.7214C26.3109 14.7406 28.3085 15.5281 29.8899 17.0774C31.4776 18.6268 32.2907 20.7652 32.3163 23.4285C32.3227 23.659 32.1435 23.8447 31.913 23.8447C31.9194 23.8447 31.9194 23.8447 31.913 23.8447Z"/>
<path d="M25.3698 27.3339C25.3698 27.3339 25.9396 27.3852 26.2469 27.0074L26.8424 26.2583C27.1305 25.887 27.8283 25.6501 28.507 26.0279C28.8847 26.2391 29.5698 26.6617 29.9923 26.9754C30.4469 27.3083 31.3688 28.0766 31.3752 28.083C31.817 28.4543 31.9194 28.9985 31.6185 29.5812C31.6185 29.5812 31.6185 29.5876 31.6185 29.594C31.3112 30.1382 30.895 30.6503 30.3764 31.1241C30.37 31.1241 30.37 31.1305 30.3636 31.1305C29.9347 31.4891 29.5121 31.6939 29.1024 31.7387C29.0512 31.7515 28.9935 31.7515 28.9167 31.7515C28.7374 31.7515 28.5582 31.7259 28.3789 31.6683L28.3661 31.6491C27.7259 31.4698 26.6631 31.0217 24.896 30.0421C23.7436 29.4083 22.7897 28.7617 21.9766 28.115C21.5476 27.7757 21.1123 27.398 20.6641 26.9498C20.6513 26.937 20.6321 26.9178 20.6193 26.905C20.6065 26.8922 20.5873 26.873 20.5745 26.8602C20.5617 26.8474 20.5425 26.8281 20.5296 26.8153C20.5168 26.8025 20.4976 26.7833 20.4848 26.7705C20.0431 26.3224 19.6589 25.887 19.3196 25.458C18.673 24.6513 18.0263 23.691 17.3925 22.5386C16.4129 20.7651 15.9648 19.7023 15.7855 19.0685L15.7663 19.0557C15.7087 18.8764 15.6831 18.6972 15.6831 18.5179C15.6831 18.4411 15.6831 18.3835 15.6959 18.3322C15.7471 17.9161 15.952 17.4999 16.3041 17.071C16.3041 17.0646 16.3105 17.0646 16.3105 17.0582C16.7843 16.5332 17.2965 16.1234 17.8407 15.8161C17.8407 15.8161 17.8471 15.8161 17.8535 15.8161C18.4297 15.5152 18.9739 15.6176 19.3516 16.0594C19.3516 16.0594 20.1263 16.9877 20.4592 17.4423C20.7729 17.8713 21.1955 18.5499 21.4068 18.9277C21.7845 19.6063 21.5476 20.3042 21.1763 20.5923L20.4272 21.1877C20.0495 21.495 20.1007 22.0648 20.1007 22.0648C20.1007 22.0648 21.2083 26.2775 25.3698 27.3339Z"/>
<!--<defs>-->
<linearGradient id="paint0_linear_309_62" x1="-20" y1="24" x2="54" y2="53" gradientUnits="userSpaceOnUse">
<stop stop-color="#0B3E0D"/>
<stop offset="1" stop-color="#13F01C"/>
</linearGradient>
<!--</defs>-->
</svg>
