<svg width="28" height="28" viewBox="0 0 28 28" fill="none" xmlns="http://www.w3.org/2000/svg">
<circle cx="14" cy="14" r="14" fill="url(#paint0_linear_309_78)"/>
<path d="M20.9613 7.07119C20.4982 6.64544 18.6234 5.28227 14.4443 5.2636C14.4443 5.2636 9.51819 4.96482 7.11678 7.16829C5.77976 8.50532 5.30919 10.4586 5.26064 12.8861C5.21208 15.3099 5.14859 19.8551 9.5294 21.0875H9.53313L9.5294 22.9661C9.5294 22.9661 9.50325 23.7279 10.0037 23.8811C10.6087 24.0678 10.9673 23.4889 11.5461 22.8652C11.8636 22.5216 12.3005 22.0212 12.6329 21.6365C15.6282 21.8867 17.9325 21.3116 18.1939 21.2257C18.7989 21.0278 22.2236 20.5908 22.7801 16.0457C23.3553 11.3698 22.5 8.40821 20.9613 7.07119ZM21.4692 15.717C20.9987 19.5115 18.2238 19.7505 17.7121 19.9148C17.4955 19.9858 15.4713 20.49 12.9242 20.3219C12.9242 20.3219 11.027 22.6113 10.4369 23.2051C10.3436 23.2985 10.2353 23.3358 10.1643 23.3171C10.0635 23.291 10.0336 23.1715 10.0373 22.9959C10.0373 22.742 10.0523 19.87 10.0523 19.87C10.0485 19.87 10.0485 19.87 10.0523 19.87C6.3437 18.843 6.56031 14.9738 6.60139 12.9496C6.64247 10.9254 7.02341 9.26346 8.15503 8.14679C10.183 6.30931 14.3696 6.58195 14.3696 6.58195C17.9026 6.59689 19.5944 7.66127 19.9866 8.01607C21.29 9.13648 21.9547 11.8068 21.4692 15.717Z" fill="white"/>
<path d="M16.166 13.0206C16.0427 13.0206 15.9382 12.9235 15.9307 12.7965C15.8896 11.9935 15.5124 11.6014 14.7431 11.5603C14.6123 11.5528 14.5115 11.4408 14.519 11.3101C14.5264 11.1794 14.6385 11.0785 14.7692 11.086C15.785 11.142 16.3527 11.7246 16.405 12.7704C16.4125 12.9011 16.3116 13.0131 16.1809 13.0168C16.1734 13.0206 16.1697 13.0206 16.166 13.0206Z" fill="white"/>
<path d="M17.376 13.424H17.3723C17.2416 13.4203 17.137 13.312 17.1407 13.1812C17.1594 12.3746 16.9278 11.721 16.4349 11.1832C15.9456 10.6454 15.2696 10.3541 14.377 10.2906C14.2463 10.2794 14.1492 10.1673 14.1604 10.0366C14.1716 9.90592 14.2837 9.80881 14.4144 9.82002C15.4228 9.89471 16.2182 10.2458 16.7859 10.8657C17.3573 11.4894 17.6337 12.27 17.615 13.1925C17.6113 13.3232 17.503 13.424 17.376 13.424Z" fill="white"/>
<path d="M18.6159 13.9094C18.4852 13.9094 18.3806 13.8048 18.3806 13.6741C18.3694 12.2288 17.9549 11.1271 17.1108 10.3017C16.278 9.48753 15.2211 9.07297 13.9774 9.06177C13.8467 9.06177 13.7421 8.95346 13.7421 8.82275C13.7421 8.69204 13.8504 8.58746 13.9774 8.58746C15.348 8.59867 16.5133 9.05804 17.4357 9.96183C18.3619 10.8656 18.8363 12.113 18.8512 13.6667C18.8549 13.8011 18.7504 13.9094 18.6159 13.9094C18.6196 13.9094 18.6196 13.9094 18.6159 13.9094Z" fill="white"/>
<path d="M14.7991 15.9448C14.7991 15.9448 15.1315 15.9747 15.3107 15.7543L15.658 15.3174C15.8261 15.1007 16.2332 14.9626 16.6291 15.1829C16.8494 15.3062 17.249 15.5526 17.4955 15.7356C17.7607 15.9299 18.2985 16.378 18.3022 16.3818C18.5599 16.5984 18.6197 16.9158 18.4441 17.2557C18.4441 17.2557 18.4441 17.2594 18.4441 17.2631C18.2649 17.5806 18.0221 17.8794 17.7196 18.1557C17.7159 18.1557 17.7159 18.1595 17.7121 18.1595C17.4619 18.3686 17.2154 18.4881 16.9764 18.5143C16.9465 18.5217 16.9129 18.5217 16.8681 18.5217C16.7635 18.5217 16.6589 18.5068 16.5544 18.4732L16.5469 18.462C16.1734 18.3574 15.5535 18.096 14.5227 17.5246C13.8505 17.1548 13.294 16.7776 12.8197 16.4004C12.5695 16.2025 12.3155 15.9821 12.0541 15.7207C12.0466 15.7132 12.0354 15.702 12.0279 15.6946C12.0205 15.6871 12.0092 15.6759 12.0018 15.6684C11.9943 15.661 11.9831 15.6498 11.9756 15.6423C11.9682 15.6348 11.957 15.6236 11.9495 15.6161C11.6918 15.3547 11.4677 15.1007 11.2698 14.8505C10.8926 14.38 10.5154 13.8197 10.1456 13.1475C9.57422 12.113 9.3128 11.493 9.20822 11.1233L9.19702 11.1158C9.16341 11.0113 9.14847 10.9067 9.14847 10.8021C9.14847 10.7573 9.14847 10.7237 9.15594 10.6938C9.18582 10.451 9.30533 10.2083 9.51073 9.95807C9.51073 9.95433 9.51447 9.95433 9.51447 9.9506C9.79084 9.64435 10.0896 9.40533 10.4071 9.22607C10.4071 9.22607 10.4108 9.22607 10.4145 9.22607C10.7507 9.05054 11.0681 9.11029 11.2885 9.36799C11.2885 9.36799 11.7403 9.90952 11.9346 10.1747C12.1176 10.4249 12.364 10.8208 12.4873 11.0411C12.7076 11.437 12.5695 11.8441 12.3528 12.0122L11.9159 12.3595C11.6955 12.5387 11.7254 12.8711 11.7254 12.8711C11.7254 12.8711 12.3715 15.3286 14.7991 15.9448Z" fill="white"/>
<defs>
<linearGradient id="paint0_linear_309_78" x1="-11.6667" y1="14" x2="31.5" y2="30.9167" gradientUnits="userSpaceOnUse">
<stop stop-color="#0B3E0D"/>
<stop offset="1" stop-color="#13F01C"/>
</linearGradient>
</defs>
</svg>
