<svg width="246" height="246" viewBox="0 0 246 246" fill="none" xmlns="http://www.w3.org/2000/svg">
<path d="M246 123C246 55.069 190.931 0 123 0C55.069 0 0 55.069 0 123C0 190.931 55.069 246 123 246C190.931 246 246 190.931 246 123Z" fill="black"/>
<path fill-rule="evenodd" clip-rule="evenodd" d="M161.04 239.997C149.06 243.894 136.274 246 123 246C109.717 246 96.923 243.891 84.9356 239.989C90.4732 240.653 92.5191 237.048 92.5191 233.935C92.5191 232.58 92.496 230.189 92.4647 226.992C92.4294 223.292 92.3827 218.512 92.3499 213.003C58.1329 220.441 50.9143 196.502 50.9143 196.502C45.3255 182.286 37.2613 178.501 37.2613 178.501C26.0914 170.861 38.1069 171.016 38.1069 171.016C50.4454 171.886 56.9413 183.702 56.9413 183.702C67.9191 202.511 85.731 197.08 92.742 193.925C93.8567 185.971 97.0393 180.547 100.553 177.47C73.2388 174.363 44.526 163.808 44.526 116.643C44.526 103.204 49.3153 92.2192 57.1873 83.6103C55.9189 80.4958 51.6984 67.9867 58.3866 51.0393C58.3866 51.0393 68.7186 47.731 92.2116 63.6556C102.029 60.9239 112.545 59.5638 123.008 59.5084C133.455 59.5617 143.979 60.9239 153.804 63.6556C177.281 47.731 187.59 51.0393 187.59 51.0393C194.302 67.9867 190.081 80.4958 188.813 83.6103C196.7 92.2192 201.459 103.204 201.459 116.643C201.459 163.923 172.7 174.333 145.301 177.378C149.714 181.178 153.65 188.686 153.65 200.172C153.65 211.175 153.581 220.754 153.536 227.102C153.513 230.246 153.496 232.598 153.496 233.937C153.496 237.064 155.493 240.677 161.04 239.997Z" fill="white"/>
</svg>
