<svg width="200" height="200" viewBox="0 0 200 200" fill="none" xmlns="http://www.w3.org/2000/svg">
<rect x="25" y="25" width="150" height="150" fill="white"/>
<path d="M111.111 111.111H155.556C161.692 111.111 166.667 116.086 166.667 122.222V122.222C166.667 128.359 161.692 133.333 155.556 133.333H111.111M111.111 66.6667H155.556C161.692 66.6667 166.667 71.6413 166.667 77.7778V77.7778C166.667 83.9143 161.692 88.8889 155.556 88.8889H111.111M43.4444 49L84.5557 90.1113C90.0189 95.5744 90.0237 104.43 84.5665 109.899L51.3291 143.209C46.9804 147.567 39.9171 147.559 35.5792 143.19V143.19C31.2661 138.846 31.2785 131.833 35.6069 127.504L53.2116 109.899C58.679 104.432 58.679 95.5678 53.2116 90.1005L27.7778 64.6667M22.2222 0C9.88889 0 0 10 0 22.2222V177.778C0 183.671 2.34126 189.324 6.50874 193.491C10.6762 197.659 16.3285 200 22.2222 200H177.778C183.671 200 189.324 197.659 193.491 193.491C197.659 189.324 200 183.671 200 177.778V22.2222C200 16.3285 197.659 10.6762 193.491 6.50874C189.324 2.34126 183.671 0 177.778 0H22.2222Z" fill="url(#paint0_linear_705_47)"/>
<defs>
<linearGradient id="paint0_linear_705_47" x1="-6.80493" y1="0.342858" x2="152.406" y2="212.185" gradientUnits="userSpaceOnUse">
<stop stop-color="#08530B"/>
<stop offset="1" stop-color="#13F01C"/>
</linearGradient>
</defs>
</svg>
