<svg width="33" height="26" viewBox="0 0 33 26" fill="none" xmlns="http://www.w3.org/2000/svg">
<path d="M31.5851 1.10551C30.8763 0.397617 29.9155 0 28.9138 0C27.912 0 26.9513 0.397617 26.2425 1.10551L12.1678 15.1928C11.9317 15.4275 11.6124 15.5592 11.2795 15.5592C10.9466 15.5592 10.6272 15.4275 10.3912 15.1928L6.45982 11.2362C6.10902 10.8846 5.6924 10.6055 5.23374 10.4149C4.77508 10.2243 4.28337 10.1259 3.78669 10.1253C2.78358 10.1241 1.82108 10.5215 1.11094 11.2299C0.400801 11.9384 0.00118415 12.9 2.6274e-06 13.9031C-0.00117889 14.9062 0.396171 15.8687 1.10464 16.5788L8.66489 24.1391C9.37367 24.847 10.3344 25.2446 11.3362 25.2446C12.3379 25.2446 13.2987 24.847 14.0075 24.1391L31.6481 6.49849C32.3559 5.78972 32.7536 4.82894 32.7536 3.8272C32.7536 2.82546 32.3559 1.86469 31.6481 1.15591L31.5851 1.10551ZM29.8084 4.67143L12.1678 22.312C11.9317 22.5467 11.6124 22.6784 11.2795 22.6784C10.9466 22.6784 10.6272 22.5467 10.3912 22.312L2.8309 14.7518C2.59621 14.5157 2.46449 14.1963 2.46449 13.8634C2.46449 13.5305 2.59621 13.2112 2.8309 12.9751C3.06698 12.7404 3.38634 12.6087 3.71923 12.6087C4.05211 12.6087 4.37147 12.7404 4.60756 12.9751L8.55149 16.919C9.26026 17.6269 10.221 18.0245 11.2228 18.0245C12.2245 18.0245 13.1853 17.6269 13.8941 16.919L28.0191 2.89477C28.2552 2.66009 28.5746 2.52836 28.9075 2.52836C29.2403 2.52836 29.5597 2.66009 29.7958 2.89477C30.0305 3.13085 30.1622 3.45021 30.1622 3.7831C30.1622 4.11598 30.0305 4.43534 29.7958 4.67143H29.8084Z" fill="url(#paint0_linear_709_34)"/>
<defs>
<linearGradient id="paint0_linear_709_34" x1="5.55206" y1="30.556" x2="21.0269" y2="3.54387" gradientUnits="userSpaceOnUse">
<stop offset="0.0246004" stop-color="#0C7D10"/>
<stop offset="1" stop-color="#04DE0D"/>
</linearGradient>
</defs>
</svg>
