<svg width="416" height="321" viewBox="0 0 416 321" fill="none" xmlns="http://www.w3.org/2000/svg">
<path d="M401.067 14.0378C392.067 5.04894 379.867 0 367.147 0C354.427 0 342.227 5.04894 333.227 14.0378L154.507 192.918C151.509 195.898 147.454 197.57 143.227 197.57C139 197.57 134.945 195.898 131.947 192.918L82.0267 142.678C77.5723 138.213 72.282 134.669 66.458 132.249C60.634 129.828 54.3902 128.579 48.0833 128.571C35.3458 128.556 23.1241 133.602 14.1067 142.598C5.08936 151.594 0.0150363 163.804 3.33627e-05 176.541C-0.0149695 189.279 5.03058 201.5 14.0267 210.518L110.027 306.518C119.027 315.507 131.227 320.556 143.947 320.556C156.667 320.556 168.867 315.507 177.867 306.518L401.867 82.5178C410.856 73.5177 415.904 61.3178 415.904 48.5978C415.904 35.8777 410.856 23.6778 401.867 14.6778L401.067 14.0378ZM378.507 59.3178L154.507 283.318C151.509 286.298 147.454 287.97 143.227 287.97C139 287.97 134.945 286.298 131.947 283.318L35.9467 187.318C32.9667 184.32 31.294 180.265 31.294 176.038C31.294 171.811 32.9667 167.756 35.9467 164.758C38.9445 161.778 42.9998 160.105 47.2267 160.105C51.4537 160.105 55.5089 161.778 58.5067 164.758L108.587 214.838C117.587 223.827 129.787 228.876 142.507 228.876C155.227 228.876 167.427 223.827 176.427 214.838L355.787 36.7578C358.785 33.7777 362.84 32.1051 367.067 32.1051C371.294 32.1051 375.349 33.7777 378.347 36.7578C381.327 39.7556 382.999 43.8108 382.999 48.0378C382.999 52.2647 381.327 56.32 378.347 59.3178H378.507Z" fill="url(#paint0_linear_706_35)"/>
<defs>
<linearGradient id="paint0_linear_706_35" x1="70.5" y1="388" x2="267" y2="45" gradientUnits="userSpaceOnUse">
<stop offset="0.0246004" stop-color="#0C7D10"/>
<stop offset="1" stop-color="#04DE0D"/>
</linearGradient>
</defs>
</svg>
