<svg width="60" height="47" viewBox="0 0 60 47" fill="none" xmlns="http://www.w3.org/2000/svg">
<path d="M57.8594 2.33618C56.5611 1.03941 54.8011 0.311035 52.966 0.311035C51.131 0.311035 49.371 1.03941 48.0726 2.33618L22.2897 28.1421C21.8573 28.572 21.2722 28.8133 20.6624 28.8133C20.0526 28.8133 19.4676 28.572 19.0351 28.1421L11.8335 20.8943C11.1909 20.2502 10.4277 19.7389 9.58749 19.3897C8.74729 19.0405 7.84655 18.8603 6.93668 18.8592C5.09913 18.857 3.33597 19.5849 2.03509 20.8827C0.734211 22.1806 0.00216919 23.942 4.81304e-06 25.7796C-0.00215957 27.6171 0.725731 29.3803 2.02355 30.6811L15.8729 44.5305C17.1713 45.8272 18.9313 46.5556 20.7663 46.5556C22.6014 46.5556 24.3614 45.8272 25.6597 44.5305L57.9749 12.2154C59.2716 10.917 60 9.15698 60 7.32194C60 5.48689 59.2716 3.72689 57.9749 2.42851L57.8594 2.33618ZM54.6049 8.86845L22.2897 41.1836C21.8573 41.6135 21.2722 41.8548 20.6624 41.8548C20.0526 41.8548 19.4676 41.6135 19.0351 41.1836L5.18581 27.3342C4.75591 26.9017 4.5146 26.3167 4.5146 25.7069C4.5146 25.0971 4.75591 24.5121 5.18581 24.0796C5.61829 23.6497 6.20331 23.4084 6.81311 23.4084C7.42291 23.4084 8.00793 23.6497 8.44041 24.0796L15.6651 31.3044C16.9635 32.6011 18.7235 33.3295 20.5586 33.3295C22.3936 33.3295 24.1536 32.6011 25.452 31.3044L51.3272 5.61385C51.7597 5.18394 52.3447 4.94264 52.9545 4.94264C53.5643 4.94264 54.1493 5.18394 54.5818 5.61385C55.0117 6.04633 55.253 6.63135 55.253 7.24115C55.253 7.85095 55.0117 8.43597 54.5818 8.86845H54.6049Z" fill="url(#paint0_linear_706_40)"/>
<defs>
<linearGradient id="paint0_linear_706_40" x1="10.1706" y1="56.2854" x2="38.5185" y2="6.80291" gradientUnits="userSpaceOnUse">
<stop offset="0.0246004" stop-color="#0C7D10"/>
<stop offset="1" stop-color="#04DE0D"/>
</linearGradient>
</defs>
</svg>
