<svg width="201" height="168" viewBox="0 0 201 168" fill="none" xmlns="http://www.w3.org/2000/svg">
<path d="M182.07 0H18.9188C8.47024 0 0 8.47024 0 18.9188V148.675C0 159.124 8.47024 167.594 18.9188 167.594H182.07C192.519 167.594 200.989 159.124 200.989 148.675V18.9188C200.989 8.47024 192.519 0 182.07 0Z" fill="url(#paint0_linear_705_133)"/>
<path d="M194.003 25.916C197.861 25.916 200.989 22.7882 200.989 18.9298V18.9298C200.989 8.47782 192.522 0 182.07 0H18.9188C8.46685 0 0 8.47782 0 18.9298V18.9298C0 22.7882 3.12785 25.916 6.98625 25.916H194.003Z" fill="url(#paint1_linear_705_133)"/>
<path d="M16.2757 16.9995C18.3957 16.9995 20.1143 15.2809 20.1143 13.1609C20.1143 11.0409 18.3957 9.32227 16.2757 9.32227C14.1557 9.32227 12.4371 11.0409 12.4371 13.1609C12.4371 15.2809 14.1557 16.9995 16.2757 16.9995Z" fill="white"/>
<path d="M29.963 16.9995C32.083 16.9995 33.8016 15.2809 33.8016 13.1609C33.8016 11.0409 32.083 9.32227 29.963 9.32227C27.843 9.32227 26.1244 11.0409 26.1244 13.1609C26.1244 15.2809 27.843 16.9995 29.963 16.9995Z" fill="white"/>
<path d="M43.6503 16.9995C45.7703 16.9995 47.4889 15.2809 47.4889 13.1609C47.4889 11.0409 45.7703 9.32227 43.6503 9.32227C41.5303 9.32227 39.8117 11.0409 39.8117 13.1609C39.8117 15.2809 41.5303 16.9995 43.6503 16.9995Z" fill="white"/>
<path d="M191.513 158.238H28.3618C17.9098 158.238 9.43198 149.76 9.43198 139.319V9.56354V9.56354C9.43072 6.74456 6.52254 4.35669 4.66837 6.48005C4.07425 7.16043 3.52735 7.88509 3.03297 8.64948C1.05213 11.7122 -0.00114106 15.2822 9.27649e-07 18.9297V148.674C9.27649e-07 159.126 8.46685 167.604 18.9188 167.604H182.07C185.692 167.604 189.238 166.564 192.286 164.609C193.075 164.102 193.822 163.54 194.523 162.928C196.603 161.109 194.276 158.243 191.513 158.238V158.238Z" fill="url(#paint2_linear_705_133)"/>
<path d="M9.43198 9.56354V9.56354C9.43072 6.74456 6.52254 4.35669 4.66837 6.48005C4.07425 7.16043 3.52735 7.88509 3.03297 8.64948C1.05213 11.7122 -0.00114106 15.2822 9.27649e-07 18.9297V21.2C9.27649e-07 23.8045 2.11142 25.916 4.71599 25.916V25.916C7.32056 25.916 9.43198 23.8045 9.43198 21.2V9.56354Z" fill="url(#paint3_linear_705_133)"/>
<path d="M177.409 0H143.267C138.573 0 134.768 3.80473 134.768 8.49811C134.768 13.1915 138.573 16.9962 143.267 16.9962H177.409C182.103 16.9962 185.909 13.1915 185.909 8.49811C185.909 3.80473 182.103 0 177.409 0Z" fill="url(#paint4_linear_705_133)"/>
<path d="M190.329 44.2864H190.318C184.424 44.2864 179.646 49.0641 179.646 54.9577V104.493C179.646 110.387 184.424 115.164 190.318 115.164H190.329C196.222 115.164 201 110.387 201 104.493V54.9577C201 49.0641 196.222 44.2864 190.329 44.2864Z" fill="url(#paint5_linear_705_133)"/>
<path d="M95.9978 49.0682L30.1494 74.9623C28.603 75.5655 28.603 77.748 30.1494 78.3513L99.8255 105.748C100.254 105.923 100.735 105.923 101.164 105.748L170.84 78.3513C172.386 77.748 172.386 75.5655 170.84 74.9623L104.991 49.0682C102.102 47.9281 98.8872 47.9281 95.9978 49.0682Z" fill="url(#paint6_linear_705_133)"/>
<path d="M76.4406 86.5556C76.525 81.0054 70.3423 77.6437 65.7298 80.7317V80.7317C61.1144 83.8218 61.8717 90.8245 67.0411 92.8564V92.8564C71.5149 94.6148 76.3674 91.362 76.4406 86.5556V86.5556Z" fill="url(#paint7_linear_705_133)"/>
<path d="M124.548 86.5556C124.464 81.0054 130.647 77.6437 135.259 80.7317V80.7317C139.875 83.8218 139.117 90.8245 133.948 92.8564V92.8564C129.474 94.6148 124.622 91.362 124.548 86.5556V86.5556Z" fill="url(#paint8_linear_705_133)"/>
<path d="M133.388 124.151H68L74.054 76.9691C74.1475 76.2358 74.4653 75.5492 74.964 75.0034C75.4626 74.4577 76.1178 74.0793 76.8397 73.9202C94.2268 70.0524 110.173 70.0268 124.68 73.8434C125.371 74.0257 125.991 74.4101 126.462 74.9475C126.933 75.4848 127.233 76.1506 127.323 76.8595L133.388 124.151Z" fill="url(#paint9_linear_705_133)"/>
<path d="M84.164 83.89C84.2575 83.1566 84.5753 82.47 85.0739 81.9243C85.5726 81.3785 86.2278 81.0001 86.9497 80.841C100.377 77.8496 112.953 77.1542 124.677 78.7548C126.077 78.946 127.303 77.7684 127.123 76.3663V76.3663C127.033 75.6575 126.734 74.9917 126.263 74.4543C125.792 73.9169 125.171 73.5325 124.48 73.3503C109.967 69.5336 94.0201 69.5592 76.6403 73.427C75.9184 73.5862 75.2632 73.9645 74.7646 74.5103C74.2659 75.0561 73.9481 75.7426 73.8546 76.476L68.6079 117.367C68.1797 120.703 70.7792 123.658 74.1435 123.658V123.658C76.9508 123.658 79.3212 121.573 79.679 118.788L84.164 83.89Z" fill="url(#paint10_linear_705_133)"/>
<path d="M100.494 127.683C118.551 127.683 133.188 125.881 133.188 123.658C133.188 121.435 118.551 119.633 100.494 119.633C82.4382 119.633 67.8006 121.435 67.8006 123.658C67.8006 125.881 82.4382 127.683 100.494 127.683Z" fill="url(#paint11_linear_705_133)"/>
<path d="M122.658 85.315L122.647 85.3165C119.961 85.7036 118.097 88.1947 118.485 90.8805L121.498 111.793C121.885 114.479 124.376 116.343 127.062 115.956L127.073 115.954C129.759 115.567 131.622 113.076 131.235 110.39L128.222 89.4774C127.835 86.7915 125.344 84.9279 122.658 85.315Z" fill="url(#paint12_linear_705_133)"/>
<path d="M108.948 56.5926L108.944 56.6029C108.02 59.1544 109.34 61.9717 111.892 62.8953L131.759 70.0871C134.31 71.0108 137.128 69.6911 138.051 67.1395L138.055 67.1292C138.979 64.5776 137.659 61.7604 135.107 60.8368L115.24 53.645C112.689 52.7213 109.871 54.041 108.948 56.5926Z" fill="url(#paint13_linear_705_133)"/>
<path d="M149.64 116.685C149.426 116.686 149.213 116.645 149.015 116.564C148.817 116.483 148.637 116.364 148.485 116.213C148.333 116.062 148.212 115.883 148.13 115.685C148.048 115.487 148.005 115.275 148.005 115.061V68.7679C147.987 68.5428 148.015 68.3163 148.089 68.1027C148.162 67.8891 148.279 67.6931 148.432 67.5269C148.585 67.3608 148.771 67.2282 148.978 67.1375C149.185 67.0468 149.408 67 149.634 67C149.86 67 150.083 67.0468 150.29 67.1375C150.497 67.2282 150.683 67.3608 150.836 67.5269C150.989 67.6931 151.106 67.8891 151.179 68.1027C151.253 68.3163 151.281 68.5428 151.263 68.7679V115.061C151.263 115.492 151.092 115.905 150.787 116.209C150.483 116.514 150.07 116.685 149.64 116.685V116.685Z" fill="url(#paint14_linear_705_133)"/>
<path d="M149.643 131.769C148.902 131.769 148.169 131.624 147.485 131.34C146.802 131.057 146.18 130.642 145.657 130.118C145.133 129.595 144.718 128.973 144.435 128.289C144.151 127.605 144.005 126.872 144.005 126.132V117.062C143.972 116.3 144.093 115.539 144.361 114.825C144.63 114.112 145.04 113.459 145.567 112.908C146.095 112.357 146.728 111.919 147.429 111.619C148.131 111.319 148.886 111.165 149.648 111.165C150.411 111.165 151.166 111.319 151.867 111.619C152.568 111.919 153.202 112.357 153.729 112.908C154.256 113.459 154.667 114.112 154.935 114.825C155.204 115.539 155.325 116.3 155.291 117.062V126.132C155.288 127.628 154.692 129.062 153.633 130.119C152.574 131.176 151.139 131.769 149.643 131.769Z" fill="url(#paint15_linear_705_133)"/>
<path d="M146.841 128.789V119.719C146.845 118.767 147.089 117.831 147.551 116.998C148.014 116.165 148.679 115.462 149.485 114.955C150.291 114.447 151.212 114.152 152.162 114.095V114.095C153.189 114.034 154.081 113 153.296 112.336C153.025 112.107 152.731 111.902 152.417 111.725C151.268 111.079 149.93 110.855 148.633 111.092C147.336 111.329 146.163 112.012 145.317 113.023C144.471 114.033 144.005 115.308 144 116.626V125.696C144 126.761 144.302 127.805 144.871 128.705C145.073 129.026 145.307 129.324 145.567 129.596C146.075 130.126 146.84 129.523 146.841 128.789V128.789Z" fill="url(#paint16_linear_705_133)"/>
<path d="M152.862 117.547H152.851C151.573 117.547 150.537 118.583 150.537 119.861V124.536C150.537 125.814 151.573 126.85 152.851 126.85H152.862C154.14 126.85 155.176 125.814 155.176 124.536V119.861C155.176 118.583 154.14 117.547 152.862 117.547Z" fill="url(#paint17_linear_705_133)"/>
<defs>
<linearGradient id="paint0_linear_705_133" x1="-6.83858" y1="0.287305" x2="118.156" y2="199.741" gradientUnits="userSpaceOnUse">
<stop stop-color="#08530B"/>
<stop offset="1" stop-color="#13F01C"/>
</linearGradient>
<linearGradient id="paint1_linear_705_133" x1="-6.83858" y1="0.0444276" x2="-2.71458" y2="42.6004" gradientUnits="userSpaceOnUse">
<stop stop-color="#08530B"/>
<stop offset="1" stop-color="#13F01C"/>
</linearGradient>
<linearGradient id="paint2_linear_705_133" x1="-6.77999" y1="1.95146" x2="153.248" y2="270.593" gradientUnits="userSpaceOnUse">
<stop offset="0.240337" stop-color="#08530B"/>
<stop offset="1" stop-color="#13F01C"/>
</linearGradient>
<linearGradient id="paint3_linear_705_133" x1="-0.37988" y1="1.70856" x2="26.2643" y2="31.1791" gradientUnits="userSpaceOnUse">
<stop offset="0.26742" stop-color="#294A2A"/>
<stop offset="1" stop-color="#13F01C"/>
</linearGradient>
<linearGradient id="paint4_linear_705_133" x1="130" y1="8" x2="142.129" y2="41.68" gradientUnits="userSpaceOnUse">
<stop stop-color="#08530B"/>
<stop offset="1" stop-color="#13F01C"/>
</linearGradient>
<linearGradient id="paint5_linear_705_133" x1="178.92" y1="44.4079" x2="219.493" y2="60.6724" gradientUnits="userSpaceOnUse">
<stop stop-color="#08530B"/>
<stop offset="1" stop-color="#13F01C"/>
</linearGradient>
<linearGradient id="paint6_linear_705_133" x1="40" y1="77" x2="64.7492" y2="155.522" gradientUnits="userSpaceOnUse">
<stop stop-color="#08530B"/>
<stop offset="1" stop-color="#13F01C"/>
</linearGradient>
<linearGradient id="paint7_linear_705_133" x1="66" y1="86" x2="73.6132" y2="96.1438" gradientUnits="userSpaceOnUse">
<stop stop-color="#08530B"/>
<stop offset="1" stop-color="#13F01C"/>
</linearGradient>
<linearGradient id="paint8_linear_705_133" x1="129.5" y1="83" x2="142.918" y2="96.552" gradientUnits="userSpaceOnUse">
<stop stop-color="#08530B"/>
<stop offset="1" stop-color="#13F01C"/>
</linearGradient>
<linearGradient id="paint9_linear_705_133" x1="64" y1="62" x2="144.5" y2="135" gradientUnits="userSpaceOnUse">
<stop stop-color="#38E43F"/>
<stop offset="1" stop-color="#126B16"/>
</linearGradient>
<linearGradient id="paint10_linear_705_133" x1="65.7699" y1="70.598" x2="106.491" y2="131.441" gradientUnits="userSpaceOnUse">
<stop stop-color="#08530B"/>
<stop offset="1" stop-color="#13F01C"/>
</linearGradient>
<linearGradient id="paint11_linear_705_133" x1="65.5758" y1="119.646" x2="65.184" y2="137.739" gradientUnits="userSpaceOnUse">
<stop stop-color="#08530B"/>
<stop offset="1" stop-color="#13F01C"/>
</linearGradient>
<linearGradient id="paint12_linear_705_133" x1="117.46" y1="86.1176" x2="136.787" y2="91.1958" gradientUnits="userSpaceOnUse">
<stop stop-color="#08530B"/>
<stop offset="1" stop-color="#13F01C"/>
</linearGradient>
<linearGradient id="paint13_linear_705_133" x1="107.208" y1="61.5557" x2="120.791" y2="46.8986" gradientUnits="userSpaceOnUse">
<stop stop-color="#08530B"/>
<stop offset="1" stop-color="#13F01C"/>
</linearGradient>
<linearGradient id="paint14_linear_705_133" x1="146.5" y1="66" x2="171" y2="127.5" gradientUnits="userSpaceOnUse">
<stop stop-color="#0D7211"/>
<stop offset="0.911052" stop-color="#12DD1A"/>
</linearGradient>
<linearGradient id="paint15_linear_705_133" x1="143.616" y1="111.2" x2="163.66" y2="125.904" gradientUnits="userSpaceOnUse">
<stop offset="0.190518" stop-color="#08530B"/>
<stop offset="0.410249" stop-color="#0B7E10"/>
<stop offset="1" stop-color="#13F01C"/>
</linearGradient>
<linearGradient id="paint16_linear_705_133" x1="143.628" y1="111.034" x2="159.275" y2="122.528" gradientUnits="userSpaceOnUse">
<stop stop-color="#08530B"/>
<stop offset="1" stop-color="#13F01C"/>
</linearGradient>
<linearGradient id="paint17_linear_705_133" x1="150.379" y1="117.563" x2="157.482" y2="122.277" gradientUnits="userSpaceOnUse">
<stop stop-color="#08530B"/>
<stop offset="1" stop-color="#13F01C"/>
</linearGradient>
</defs>
</svg>
