<svg width="200" height="200" viewBox="0 0 200 200" fill="none" xmlns="http://www.w3.org/2000/svg">
<rect width="200" height="200" rx="14" fill="url(#paint0_linear_326_80)"/>
<path d="M78.6834 164C84.3414 164 89.7676 161.752 93.7684 157.752C97.7692 153.751 100.017 148.325 100.017 142.667V121.333H78.6834C73.0255 121.333 67.5993 123.581 63.5985 127.582C59.5977 131.582 57.3501 137.009 57.3501 142.667C57.3501 148.325 59.5977 153.751 63.5985 157.752C67.5993 161.752 73.0255 164 78.6834 164V164Z" fill="#0ACF83"/>
<path d="M57.3501 100C57.3501 94.3421 59.5977 88.9159 63.5985 84.9151C67.5993 80.9143 73.0255 78.6667 78.6834 78.6667H100.017V121.333H78.6834C73.0255 121.333 67.5993 119.086 63.5985 115.085C59.5977 111.084 57.3501 105.658 57.3501 100V100Z" fill="#A259FF"/>
<path d="M57.3501 57.3333C57.3501 51.6783 59.5954 46.2546 63.5926 42.2543C67.5898 38.254 73.0117 36.0044 78.6668 36H100V78.6667H78.6834C73.0255 78.6667 67.5993 76.4191 63.5985 72.4183C59.5977 68.4175 57.3501 62.9913 57.3501 57.3333V57.3333Z" fill="#F24E1E"/>
<path d="M100.017 36H121.35C127.008 36 132.434 38.2476 136.435 42.2484C140.436 46.2492 142.683 51.6754 142.683 57.3333C142.683 62.9913 140.436 68.4175 136.435 72.4183C132.434 76.4191 127.008 78.6667 121.35 78.6667H100.017V36Z" fill="#FF7262"/>
<path d="M142.683 100C142.683 105.658 140.436 111.084 136.435 115.085C132.434 119.086 127.008 121.333 121.35 121.333C115.692 121.333 110.266 119.086 106.265 115.085C102.264 111.084 100.017 105.658 100.017 100C100.017 94.3421 102.264 88.9159 106.265 84.9151C110.266 80.9143 115.692 78.6667 121.35 78.6667C127.008 78.6667 132.434 80.9143 136.435 84.9151C140.436 88.9159 142.683 94.3421 142.683 100V100Z" fill="#1ABCFE"/>
<defs>
<linearGradient id="paint0_linear_326_80" x1="-6.80493" y1="0.342858" x2="152.406" y2="212.185" gradientUnits="userSpaceOnUse">
<stop stop-color="#08530B"/>
<stop offset="1" stop-color="#13F01C"/>
</linearGradient>
</defs>
</svg>
