<svg width="200" height="200" viewBox="0 0 200 200" fill="none" xmlns="http://www.w3.org/2000/svg">
<rect width="200" height="200" rx="14" fill="url(#paint0_linear_409_51)"/>
<path d="M168.75 94.2239L106.702 30.5875C103.131 26.9227 97.3352 26.9227 93.7587 30.5875L80.8765 43.8034L97.2204 60.5664C101.02 59.2512 105.374 60.1334 108.402 63.2382C111.444 66.3626 112.299 70.8668 110.983 74.7764L126.735 90.9343C130.545 89.5869 134.944 90.4575 137.986 93.5842C142.241 97.9453 142.241 105.015 137.986 109.378C133.73 113.743 126.839 113.743 122.582 109.378C119.382 106.095 118.591 101.274 120.212 97.2306L105.523 82.1638L105.521 121.815C106.559 122.34 107.537 123.042 108.402 123.926C112.656 128.287 112.656 135.354 108.402 139.725C104.147 144.086 97.2519 144.086 93.0022 139.725C88.749 135.355 88.4 128.288 92.652 123.926C93.7035 122.848 94.7403 122.034 95.8661 121.489V81.471C94.7403 80.926 93.7046 80.1177 92.6509 79.0335C89.4301 75.7313 88.8278 70.8818 90.4804 66.8222L74.4574 50.2959L31.9552 93.9295C28.3809 97.5977 28.4034 103.542 31.9777 107.208L94.0367 170.844C97.6088 174.509 103.409 174.509 106.986 170.844L168.746 107.503C172.32 103.836 172.324 97.8887 168.75 94.2239V94.2239Z" fill="white"/>
<defs>
<linearGradient id="paint0_linear_409_51" x1="-6.80493" y1="0.342858" x2="152.406" y2="212.185" gradientUnits="userSpaceOnUse">
<stop stop-color="#08530B"/>
<stop offset="1" stop-color="#13F01C"/>
</linearGradient>
</defs>
</svg>
