<svg width="200" height="200" viewBox="0 0 200 200" fill="none" xmlns="http://www.w3.org/2000/svg">
<rect width="200" height="200" rx="14" fill="url(#paint0_linear_404_41)"/>
<circle cx="100.5" cy="99.5" r="82.5" transform="rotate(180 100.5 99.5)" fill="url(#paint1_linear_404_41)"/>
<path fill-rule="evenodd" clip-rule="evenodd" d="M127.771 177.819C119.403 180.533 110.474 182 101.203 182C91.9251 182 82.9896 180.531 74.6174 177.813C78.4848 178.275 79.9139 175.764 79.9139 173.596C79.9139 172.652 79.8977 170.987 79.8761 168.76C79.8511 166.183 79.8188 162.853 79.7958 159.016C55.8977 164.197 50.8561 147.522 50.8561 147.522C46.9527 137.619 41.3205 134.983 41.3205 134.983C33.5191 129.661 41.9111 129.77 41.9111 129.77C50.5286 130.375 55.0655 138.606 55.0655 138.606C62.7326 151.707 75.1729 147.925 80.0696 145.727C80.8481 140.187 83.071 136.408 85.5246 134.265C66.4481 132.101 46.3943 124.748 46.3943 91.8957C46.3943 82.534 49.7393 74.8828 55.2373 68.8863C54.3514 66.7167 51.4038 58.0035 56.0749 46.1986C56.0749 46.1986 63.291 43.8941 79.6991 54.9865C86.5555 53.0837 93.9005 52.1364 101.208 52.0977C108.505 52.135 115.855 53.0837 122.717 54.9865C139.114 43.8941 146.314 46.1986 146.314 46.1986C151.001 58.0035 148.054 66.7167 147.168 68.8863C152.677 74.8828 156 82.534 156 91.8957C156 124.829 135.914 132.079 116.778 134.201C119.86 136.848 122.609 142.078 122.609 150.078C122.609 157.743 122.561 164.415 122.529 168.836C122.514 171.027 122.502 172.665 122.502 173.597C122.502 175.776 123.896 178.292 127.771 177.819Z" fill="white"/>
<defs>
<linearGradient id="paint0_linear_404_41" x1="-6.80493" y1="0.342858" x2="152.406" y2="212.185" gradientUnits="userSpaceOnUse">
<stop stop-color="#08530B"/>
<stop offset="1" stop-color="#13F01C"/>
</linearGradient>
<linearGradient id="paint1_linear_404_41" x1="12.3859" y1="17.2829" x2="143.735" y2="192.053" gradientUnits="userSpaceOnUse">
<stop stop-color="#08530B"/>
<stop offset="1" stop-color="#13F01C"/>
</linearGradient>
</defs>
</svg>
