<svg width="200" height="200" viewBox="0 0 200 200" fill="none" xmlns="http://www.w3.org/2000/svg">
<rect width="200" height="200" rx="14" fill="url(#paint0_linear_326_65)"/>
<path fill-rule="evenodd" clip-rule="evenodd" d="M133.665 103.614L139.292 53.0705C139.292 53.0705 133.962 57.4847 100.031 57.4847C66.0971 57.4847 61.3165 53.1621 61.3165 53.1621L65.7751 96.1296C68.1626 89.3362 73.8539 75.5162 82.8349 75.9798C86.916 76.188 92.3574 84.0419 87.6933 84.3085C85.7222 84.4195 85.5279 80.3884 83.1958 79.7971C81.5107 79.3696 79.162 80.741 77.6434 82.2263C74.6173 85.1885 68.1071 96.8736 68.9677 102.701C70.0671 110.127 79.2203 100.119 80.7667 97.1485C81.8605 95.0552 82.599 88.8531 84.9865 89.5028C87.3685 90.1524 84.7755 96.5544 83.0432 102.212C81.0998 108.57 80.0809 115.283 77.6462 114.511C75.2114 113.734 79.1731 105.538 79.0343 104.1C76.7439 106.21 72.5185 111.568 67.116 108.903L69.9755 136.482C69.9755 136.482 77.4241 142.367 99.8615 142.367C122.293 142.367 130.025 136.576 130.025 136.576L133.198 108.078C130.089 110.882 121.594 115.352 121.033 109.966C120.572 105.51 130.794 99.0502 128.168 98.8336C122.524 99.1668 119.711 105.46 116.869 112.048C115.83 114.464 112.268 124.775 109.928 123.506C107.596 122.234 112.96 113.761 114.462 108.736C112.726 110.002 106.363 114.944 104.725 110.319C102.088 112.554 96.4523 113.767 97.0908 107.887C95.6916 110.374 92.5378 113.842 88.7622 112.401C83.8038 110.508 91.6411 94.7026 93.5928 95.4994C95.5361 96.2962 93.1958 99.8969 92.5822 101.296C91.233 104.372 89.6755 108.242 90.7222 109.033C92.4989 110.388 97.3573 103.897 97.46 103.759C98.3679 102.559 100.958 94.7082 103.04 95.6132C105.122 96.5127 97.8404 106.874 100.564 108.931C101.119 109.347 103.362 108.675 104.728 107.196C105.617 106.241 105.311 104.122 108.254 97.0902C111.208 90.058 113.834 81.3018 115.861 81.9681C117.879 82.6344 116.213 87.1319 115.489 88.8059C112.091 96.6737 106.202 109.666 108.979 108.684C111.755 107.698 113.198 107.643 115.919 104.464C118.64 101.279 118.512 96.038 120.325 96.1518C122.141 96.2628 121.835 97.9397 121.397 99.2195C123.179 97.1818 129.85 92.8814 131.46 97.1374C133.376 102.179 121.921 109.458 124.778 109.089C127.429 108.739 131.657 106.13 133.717 103.636L133.665 103.614ZM110.428 44.9195C107.257 44.8029 103.931 44.7418 100.506 44.7418C78.6845 44.7418 61 47.2293 61 50.2943C61 53.3592 78.6845 55.8467 100.5 55.8467C122.315 55.8467 140 53.3592 140 50.2943C140 48.0733 130.719 46.1577 117.313 45.2693L120.047 34.4615L139.611 13.8759L139.52 13.7981C139.575 13.762 139.636 13.7148 139.686 13.6593C140.186 13.0902 139.436 11.6382 138.021 10.4111C136.605 9.18961 135.058 8.66213 134.567 9.2257C134.5 9.30066 134.456 9.39228 134.434 9.48944L113.731 31.416L110.417 44.9195H110.428ZM121.955 175.552C121.955 178.472 112.321 180.84 100.439 180.84C88.5567 180.84 78.9232 178.472 78.9232 175.552L77.0798 148.306L71.8661 139.65C71.8661 139.65 82.2825 143.897 99.9892 143.897C117.701 143.897 128.279 139.566 128.279 139.566L123.631 147.506L121.949 175.552H121.955ZM115.425 51.8045C116.091 51.7157 117.118 51.5908 117.118 50.7857C117.118 50.3137 116.719 50.0361 116.263 49.8973L115.925 50.4247C116.202 50.4942 116.369 50.5802 116.369 50.6691C116.363 50.9689 114.231 51.1132 112.471 51.1355C110.711 51.1577 108.407 50.9495 108.409 50.6468C108.409 50.583 108.493 50.5219 108.645 50.4719L108.304 49.9361C107.943 50.0972 107.66 50.3248 107.66 50.7301C107.66 50.9411 107.751 51.2493 107.924 51.4048C108.562 51.9878 110.158 52.0072 112.41 51.9961C114.659 51.9878 115.428 51.8156 115.428 51.8156L115.425 51.8045Z" fill="white"/>
<defs>
<linearGradient id="paint0_linear_326_65" x1="-6.80493" y1="0.342858" x2="152.406" y2="212.185" gradientUnits="userSpaceOnUse">
<stop stop-color="#08530B"/>
<stop offset="1" stop-color="#13F01C"/>
</linearGradient>
</defs>
</svg>
