<svg width="200" height="200" viewBox="0 0 200 200" fill="none" xmlns="http://www.w3.org/2000/svg">
<rect width="200" height="200" rx="14" fill="url(#paint0_linear_329_93)"/>
<path d="M38.6513 171.104L25 18H175L161.331 171.08L99.9089 188.109L38.6513 171.104Z" fill="url(#paint1_linear_329_93)"/>
<path d="M101.074 175.413L150.709 161.653L162.386 30.8384H101.074V175.413Z" fill="url(#paint2_linear_329_93)"/>
<path d="M101.074 87.6184H76.2256L74.5123 68.3899H101.074V49.6111H101.007H53.9899L54.4394 54.6536L59.0506 106.397H101.074V87.6184Z" fill="#EBEBEB"/>
<path d="M101.074 136.385L100.989 136.409L80.0774 130.765L78.7408 115.79H68.5768H59.889L62.5197 145.267L100.989 155.948L101.074 155.923V136.385Z" fill="#EBEBEB"/>
<path d="M101.007 87.6184V106.397H124.13L121.955 130.753L101.007 136.403V155.942L139.506 145.267L139.786 142.096L144.196 92.6609L144.658 87.6184H139.597H101.007Z" fill="white"/>
<path d="M101.007 49.6111V61.2757V68.3474V68.3899H146.305H146.365L146.742 64.1737L147.599 54.6536L148.048 49.6111H101.007Z" fill="white"/>
<defs>
<linearGradient id="paint0_linear_329_93" x1="-6.80493" y1="0.342858" x2="152.406" y2="212.185" gradientUnits="userSpaceOnUse">
<stop stop-color="#08530B"/>
<stop offset="1" stop-color="#13F01C"/>
</linearGradient>
<linearGradient id="paint1_linear_329_93" x1="16.0146" y1="18" x2="183.208" y2="192.97" gradientUnits="userSpaceOnUse">
<stop stop-color="#09570C"/>
<stop offset="1" stop-color="#13E91B"/>
</linearGradient>
<linearGradient id="paint2_linear_329_93" x1="98.7408" y1="27.9404" x2="162.508" y2="168.694" gradientUnits="userSpaceOnUse">
<stop stop-color="#087513"/>
<stop offset="1" stop-color="#18E821"/>
</linearGradient>
</defs>
</svg>
