<svg width="250" height="250" viewBox="0 0 250 250" fill="none" xmlns="http://www.w3.org/2000/svg">
<path d="M0 15C0 6.71573 6.71573 0 15 0H235C243.284 0 250 6.71573 250 15V235C250 243.284 243.284 250 235 250H15C6.71573 250 0 243.284 0 235V15Z" fill="url(#paint0_linear_7_63)"/>
<path d="M158.273 204.8C163.88 212.875 171.731 218.575 184.628 218.575C195.842 218.575 203.132 213.825 203.132 207.175C203.132 199.575 195.842 196.725 183.506 191.975L176.777 189.6C157.152 182.475 144.255 173.925 144.255 155.4C144.255 138.3 159.395 125 183.506 125C200.889 125 213.225 130.225 221.636 143.525L200.889 154.925C196.403 147.8 191.356 144.95 183.506 144.95C175.656 144.95 170.609 149.225 170.609 154.925C170.609 161.575 175.656 164.425 187.431 168.7L194.16 171.075C217.15 179.625 230.047 187.7 230.047 207.175C230.047 227.6 210.982 239 185.188 239C159.955 239 143.694 229.025 135.844 215.725L158.273 204.8ZM62.9484 206.7C67.4343 212.875 70.7987 218.575 80.3311 218.575C89.3029 218.575 94.9102 215.725 94.9102 204.325V125.475H121.825V203.375C121.825 227.125 105.564 237.575 81.4526 237.575C59.584 237.575 47.2479 228.075 41.0798 216.675L62.9484 206.7Z" fill="white"/>
<defs>
<linearGradient id="paint0_linear_7_63" x1="-7" y1="-7" x2="261" y2="263" gradientUnits="userSpaceOnUse">
<stop stop-color="#09590C"/>
<stop offset="1" stop-color="#13E81B"/>
</linearGradient>
</defs>
</svg>
