<svg width="200" height="200" viewBox="0 0 200 200" fill="none" xmlns="http://www.w3.org/2000/svg">
<circle cx="99.5" cy="99.5" r="99.5" fill="url(#paint0_linear_405_49)"/>
<path fill-rule="evenodd" clip-rule="evenodd" d="M129.943 195.265C120.441 198.339 110.301 200 99.7724 200C89.2369 200 79.0899 198.336 69.5824 195.259C73.9743 195.783 75.5971 192.939 75.5971 190.484C75.5971 189.415 75.5788 187.53 75.5543 185.008C75.5259 182.089 75.4892 178.319 75.463 173.974C48.3245 179.841 42.5993 160.958 42.5993 160.958C38.1667 149.746 31.7707 146.76 31.7707 146.76C22.9116 140.734 32.4414 140.857 32.4414 140.857C42.2274 141.543 47.3795 150.862 47.3795 150.862C56.0862 165.698 70.2133 161.415 75.774 158.926C76.658 152.653 79.1823 148.374 81.9687 145.947C60.3055 143.496 37.5326 135.171 37.5326 97.9701C37.5326 87.3693 41.3311 78.7056 47.5746 71.9154C46.5686 69.4586 43.2212 59.5921 48.5257 46.2248C48.5257 46.2248 56.7203 43.6154 75.3533 56.1759C83.1393 54.0213 91.4802 52.9485 99.7785 52.9047C108.065 52.947 116.412 54.0213 124.204 56.1759C142.824 43.6154 151.001 46.2248 151.001 46.2248C156.324 59.5921 152.976 69.4586 151.97 71.9154C158.226 78.7056 162 87.3693 162 97.9701C162 135.262 139.191 143.472 117.46 145.875C120.96 148.872 124.082 154.794 124.082 163.853C124.082 172.532 124.027 180.087 123.991 185.094C123.973 187.574 123.96 189.429 123.96 190.485C123.96 192.952 125.543 195.801 129.943 195.265Z" fill="white"/>
<defs>
<linearGradient id="paint0_linear_405_49" x1="-6.7709" y1="0.341144" x2="151.644" y2="211.124" gradientUnits="userSpaceOnUse">
<stop stop-color="#08530B"/>
<stop offset="1" stop-color="#13F01C"/>
</linearGradient>
</defs>
</svg>
