<svg width="200" height="200" viewBox="0 0 200 200" fill="none" xmlns="http://www.w3.org/2000/svg">
<rect width="200" height="200" rx="14" fill="url(#paint0_linear_326_57)"/>
<path d="M162.286 109.644C156.223 109.677 150.972 111.134 146.569 113.302C144.943 110.084 143.317 107.272 143.046 105.172C142.741 102.733 142.368 101.243 142.741 98.3298C143.114 95.4167 144.807 91.2841 144.807 90.9454C144.774 90.6405 144.435 89.1501 140.946 89.1162C137.457 89.0823 134.442 89.7937 134.103 90.7083C133.765 91.6229 133.087 93.723 132.647 95.8909C132.037 99.0751 125.669 110.355 122.044 116.283C120.859 113.979 119.843 111.947 119.639 110.321C119.334 107.882 118.962 106.392 119.334 103.479C119.707 100.565 121.401 96.4329 121.401 96.0942C121.367 95.7893 121.028 94.2989 117.539 94.265C114.05 94.2311 111.035 94.9425 110.697 95.8571C110.358 96.7716 109.985 98.9396 109.24 101.04C108.529 103.14 100.06 121.974 97.8586 126.885C96.7408 129.392 95.7585 131.39 95.0471 132.745C94.3358 134.1 95.0132 132.847 94.9455 132.983C94.3358 134.134 93.997 134.778 93.997 134.778V134.812C93.5228 135.659 93.0147 136.471 92.7776 136.471C92.6082 136.471 92.2695 134.202 92.8453 131.086C94.0986 124.548 97.1473 114.352 97.1134 113.979C97.1134 113.81 97.6892 112.015 95.1487 111.1C92.676 110.186 91.7952 111.71 91.592 111.71C91.3888 111.71 91.2194 112.252 91.2194 112.252C91.2194 112.252 93.9632 100.769 85.969 100.769C80.9557 100.769 74.0455 106.222 70.6243 111.202C68.4563 112.387 63.8495 114.894 58.9717 117.57C57.1087 118.586 55.1779 119.67 53.3487 120.653L52.9761 120.246C43.2883 109.915 25.3692 102.598 26.1144 88.7097C26.3854 83.6626 28.1468 70.3503 60.5299 54.2264C87.0529 41.0157 108.292 44.6402 111.984 52.7021C117.234 64.2191 100.636 85.6272 73.0632 88.7097C62.5623 89.8953 57.041 85.8305 55.6521 84.3062C54.1956 82.7141 53.9923 82.6464 53.4504 82.9512C52.5696 83.4255 53.1116 84.8481 53.4504 85.695C54.2633 87.829 57.6507 91.6229 63.4092 93.5198C68.4563 95.1796 80.7863 96.0942 95.6907 90.3357C112.39 83.8658 125.432 65.9128 121.604 50.9068C117.709 35.6298 92.3711 30.6166 68.4225 39.1188C54.1617 44.1999 38.7154 52.1263 27.6048 62.5255C14.3941 74.8554 12.294 85.6272 13.1747 90.0986C16.2572 106.053 38.2411 116.452 47.0482 124.142C46.6079 124.379 46.2014 124.616 45.8288 124.819C41.4252 126.987 24.6578 135.76 20.4575 145.042C15.7152 155.542 21.2027 163.096 24.8611 164.112C36.1748 167.263 47.7596 161.606 54.0262 152.29C60.2589 142.975 59.5137 130.882 56.6345 125.361L56.5328 125.158L59.988 123.125C62.2236 121.804 64.4254 120.585 66.3562 119.535C65.2722 122.482 64.4931 125.971 64.0867 131.052C63.6124 137.013 66.0513 144.737 69.2693 147.785C70.692 149.106 72.3857 149.14 73.4358 149.14C77.1619 149.14 78.8555 146.058 80.7186 142.365C83.022 137.86 85.0544 132.644 85.0544 132.644C85.0544 132.644 82.5139 146.769 89.458 146.769C91.9985 146.769 94.539 143.483 95.6907 141.79V141.824C95.6907 141.824 95.7585 141.722 95.8939 141.485C96.1649 141.078 96.3004 140.841 96.3004 140.841V140.773C97.3166 139.012 99.5862 134.981 102.974 128.308C107.343 119.704 111.544 108.932 111.544 108.932C111.544 108.932 111.95 111.574 113.203 115.91C113.949 118.485 115.574 121.296 116.828 124.04C115.812 125.463 115.202 126.276 115.202 126.276L115.236 126.309C114.423 127.393 113.508 128.545 112.56 129.697C109.105 133.829 104.972 138.538 104.43 139.893C103.786 141.485 103.922 142.67 105.175 143.619C106.09 144.296 107.716 144.432 109.443 144.296C112.56 144.093 114.728 143.314 115.812 142.84C117.505 142.23 119.436 141.315 121.299 139.96C124.686 137.454 126.753 133.897 126.55 129.155C126.448 126.547 125.601 123.972 124.551 121.533C124.856 121.093 125.161 120.653 125.466 120.178C130.818 112.353 134.95 103.75 134.95 103.75C134.95 103.75 135.357 106.392 136.61 110.728C137.254 112.929 138.541 115.334 139.692 117.706C134.679 121.804 131.529 126.547 130.445 129.663C128.446 135.421 130.005 138.03 132.952 138.639C134.273 138.91 136.17 138.301 137.592 137.691C139.354 137.115 141.488 136.133 143.452 134.676C146.84 132.17 150.092 128.681 149.922 123.972C149.821 121.804 149.245 119.67 148.466 117.638C152.734 115.876 158.255 114.86 165.267 115.707C180.341 117.468 183.322 126.885 182.746 130.815C182.17 134.744 179.02 136.912 177.97 137.589C176.92 138.233 176.581 138.47 176.682 138.944C176.818 139.656 177.292 139.622 178.207 139.486C179.46 139.283 186.133 136.268 186.404 129.019C186.811 119.704 177.97 109.542 162.286 109.644V109.644ZM46.032 148.835C41.0526 154.289 34.0408 156.355 31.0599 154.594C27.8419 152.731 29.0953 144.703 35.2264 138.91C38.9525 135.388 43.7964 132.136 46.9805 130.137C47.6918 129.697 48.7758 129.053 50.063 128.274C50.2662 128.139 50.4017 128.071 50.4017 128.071C50.6388 127.935 50.9098 127.766 51.1808 127.597C53.4504 135.862 51.2824 143.111 46.032 148.835V148.835ZM82.4461 124.074C80.7186 128.308 77.0602 139.181 74.8585 138.572C72.9615 138.064 71.8098 129.832 74.4858 121.703C75.8408 117.604 78.72 112.726 80.4137 110.829C83.1575 107.781 86.1384 106.764 86.8836 108.018C87.7643 109.644 83.5301 121.432 82.4461 124.074ZM112.492 138.436C111.747 138.809 111.069 139.08 110.764 138.877C110.527 138.741 111.069 138.233 111.069 138.233C111.069 138.233 114.829 134.202 116.32 132.339C117.167 131.255 118.183 130.002 119.267 128.579V128.985C119.267 133.863 114.592 137.115 112.492 138.436V138.436ZM135.662 133.152C135.12 132.745 135.187 131.492 137.016 127.563C137.728 126.005 139.354 123.396 142.165 120.924C142.504 121.94 142.707 122.922 142.673 123.837C142.639 129.934 138.304 132.203 135.662 133.152Z" fill="white"/>
<defs>
<linearGradient id="paint0_linear_326_57" x1="-6.80493" y1="0.342858" x2="152.406" y2="212.185" gradientUnits="userSpaceOnUse">
<stop stop-color="#08530B"/>
<stop offset="1" stop-color="#13F01C"/>
</linearGradient>
</defs>
</svg>
