<svg width="200" height="200" viewBox="0 0 200 200" fill="none" xmlns="http://www.w3.org/2000/svg">
<rect width="200" height="200" rx="14" fill="url(#paint0_linear_326_115)"/>
<path d="M100.344 18L172.689 58.9203V140.78L100.344 181.7L28 140.78V58.9203L100.344 18Z" fill="white"/>
<path d="M159.771 137.957L102.737 170.222V145.098L138.274 125.544L159.771 137.957ZM163.678 134.424V66.9586L142.816 79.016V122.385L163.678 134.424ZM40.693 137.957L97.7272 170.222V145.098L62.1719 125.544L40.693 137.957ZM36.786 134.424V66.9586L57.6481 79.016V122.385L36.786 134.424ZM39.2349 62.5843L97.7272 29.4966V53.7796L60.2465 74.3987L59.9474 74.5669L39.2349 62.5843ZM161.229 62.5843L102.737 29.4966V53.7796L140.218 74.38L140.517 74.5482L161.229 62.5843Z" fill="#8ED6FB"/>
<path d="M97.7272 139.378L62.658 120.086V81.8948L97.7272 102.14V139.378ZM102.737 139.378L137.806 120.105V81.8948L102.737 102.14V139.378ZM65.0321 77.4832L100.232 58.1353L135.432 77.4832L100.232 97.8031L65.0321 77.4832Z" fill="#1C78C0"/>
<defs>
<linearGradient id="paint0_linear_326_115" x1="-6.80493" y1="0.342858" x2="152.406" y2="212.185" gradientUnits="userSpaceOnUse">
<stop stop-color="#08530B"/>
<stop offset="1" stop-color="#13F01C"/>
</linearGradient>
</defs>
</svg>
