<svg width="200" height="200" viewBox="0 0 200 200" fill="none" xmlns="http://www.w3.org/2000/svg">
<rect width="200" height="200" rx="14" fill="url(#paint0_linear_410_52)"/>
<path d="M100 179C143.63 179 179 143.63 179 100C179 56.3695 143.63 21 100 21C56.3695 21 21 56.3695 21 100C21 143.63 56.3695 179 100 179Z" stroke="white" stroke-width="8.68132"/>
<path d="M125.61 172.923L137.764 166.412L161.203 98.6978C165.544 87.8461 166.846 79.1648 166.846 71.7857C166.846 57.8956 161.203 45.7417 151.22 44.4395C142.104 43.5714 136.896 52.6868 137.33 57.8956C138.198 70.4835 150.786 77.4285 150.786 94.7912C150.786 106.945 142.973 126.478 137.33 145.577L110.418 64.4066L119.099 63.9725C123.44 63.9725 123.005 57.4615 118.665 57.8956C105.209 59.1978 92.6209 58.7637 78.7307 57.8956C74.3901 57.4615 74.3901 63.9725 78.2967 63.9725L86.1099 64.4066L97.8296 96.5274L81.3351 146.011L53.989 64.4066L62.6703 63.9725C66.5769 63.9725 66.1428 57.4615 62.2362 57.8956C49.6483 58.7637 37.4945 59.6318 34.456 57.4615L30.9835 67.8791L67.445 169.016L78.2967 175.093L101.736 106.511" fill="white"/>
<defs>
<linearGradient id="paint0_linear_410_52" x1="-6.80493" y1="0.342858" x2="152.406" y2="212.185" gradientUnits="userSpaceOnUse">
<stop stop-color="#08530B"/>
<stop offset="1" stop-color="#13F01C"/>
</linearGradient>
</defs>
</svg>
