<svg width="385" height="276" viewBox="0 0 385 276" fill="none" xmlns="http://www.w3.org/2000/svg">
<g opacity="0.8">
<path d="M277 155.143H359.286L345.981 186L385 150L345.981 114L359.286 144.857H277V155.143Z" fill="url(#paint0_linear_703_119)"/>
</g>
<path d="M220.312 70.3125H18.75C8.39466 70.3125 0 78.7072 0 89.0625V253.125C0 263.48 8.39466 271.875 18.75 271.875H220.312C230.668 271.875 239.062 263.48 239.062 253.125V89.0625C239.062 78.7072 230.668 70.3125 220.312 70.3125Z" fill="url(#paint1_linear_703_119)"/>
<path d="M236.317 30.0666L208.996 2.74587C208.125 1.87531 207.092 1.18475 205.954 0.713617C204.817 0.24248 203.598 -7.18812e-06 202.367 1.59812e-10H98.4375C95.9511 1.59814e-10 93.5665 0.98772 91.8084 2.74587C90.0502 4.50403 89.0625 6.8886 89.0625 9.375V117.188H239.062V36.6957C239.062 34.2093 238.075 31.8248 236.317 30.0666Z" fill="url(#paint2_linear_703_119)"/>
<path d="M235.275 29.0247C222.475 77.088 178.657 112.5 126.562 112.5H239.062V36.6957C239.062 34.2093 238.075 31.8248 236.316 30.0666L235.275 29.0247Z" fill="url(#paint3_linear_703_119)"/>
<path d="M225 65.625H201.562V75H225V65.625Z" fill="#13F01C" fill-opacity="0.35"/>
<path d="M225 89.0625H201.562V98.4375H225V89.0625Z" fill="#13F01C" fill-opacity="0.35"/>
<path d="M236.317 30.0666L208.996 2.74587C208.125 1.87531 207.092 1.18475 205.954 0.713617C204.817 0.24248 203.598 -7.18812e-06 202.367 1.59812e-10H201.562V23.4375C201.562 25.9239 202.55 28.3085 204.308 30.0666C206.067 31.8248 208.451 32.8125 210.937 32.8125H238.209C237.748 31.7913 237.107 30.8613 236.317 30.0666V30.0666Z" fill="url(#paint4_linear_703_119)"/>
<path d="M198.817 30.0666L171.496 2.74587C170.625 1.87531 169.592 1.18475 168.454 0.713617C167.317 0.24248 166.098 -7.18812e-06 164.867 1.59812e-10H60.9375C58.4511 1.59814e-10 56.0665 0.98772 54.3084 2.74587C52.5502 4.50403 51.5625 6.8886 51.5625 9.375V117.188H201.562V36.6957C201.562 34.2093 200.575 31.8248 198.817 30.0666Z" fill="url(#paint5_linear_703_119)"/>
<path d="M159.375 42.1875H65.625V51.5625H159.375V42.1875Z" fill="#13F01C" fill-opacity="0.35"/>
<path d="M187.5 65.625H65.625V75H187.5V65.625Z" fill="#13F01C" fill-opacity="0.35"/>
<path d="M187.5 89.0625H65.625V98.4375H187.5V89.0625Z" fill="#13F01C" fill-opacity="0.35"/>
<path d="M150 18.75H65.625V28.125H150V18.75Z" fill="#13F01C" fill-opacity="0.35"/>
<path d="M198.817 30.0666L171.496 2.74587C170.625 1.87531 169.592 1.18475 168.454 0.713617C167.317 0.24248 166.098 -7.18812e-06 164.867 1.59812e-10H164.062V23.4375C164.062 25.9239 165.05 28.3085 166.808 30.0666C168.567 31.8248 170.951 32.8125 173.437 32.8125H200.709C200.248 31.7913 199.607 30.8613 198.817 30.0666V30.0666Z" fill="url(#paint6_linear_703_119)"/>
<path d="M243.75 112.5H56.25C51.2772 112.5 46.5081 114.475 42.9917 117.992C39.4754 121.508 37.5 126.277 37.5 131.25V253.125C37.5 258.098 35.5246 262.867 32.0083 266.383C28.4919 269.9 23.7228 271.875 18.75 271.875H243.75C248.723 271.875 253.492 269.9 257.008 266.383C260.525 262.867 262.5 258.098 262.5 253.125V131.25C262.5 126.277 260.525 121.508 257.008 117.992C253.492 114.475 248.723 112.5 243.75 112.5Z" fill="url(#paint7_linear_703_119)"/>
<path d="M253.125 208.339V194.786L240.176 191.681C238.363 187.306 237.671 185.637 235.858 181.263L242.842 169.866C237.663 164.686 238.439 165.462 233.259 160.283L221.862 167.266L211.444 162.949L208.339 150H194.785L191.681 162.949C187.306 164.762 185.637 165.454 181.263 167.266L169.866 160.283C164.686 165.462 165.462 164.686 160.283 169.866L167.266 181.263C165.454 185.637 164.762 187.306 162.949 191.681L150 194.786V208.339L162.949 211.444C164.762 215.819 165.453 217.488 167.266 221.862L160.282 233.259C165.462 238.439 164.686 237.663 169.866 242.842L181.262 235.859C185.637 237.671 187.306 238.363 191.681 240.176L194.785 253.125H208.339L211.444 240.176C215.819 238.363 217.488 237.671 221.862 235.859L233.259 242.842C238.438 237.663 237.662 238.439 242.842 233.259L235.858 221.862C237.671 217.488 238.363 215.819 240.175 211.444L253.125 208.339ZM201.563 220.312C197.854 220.312 194.229 219.213 191.146 217.153C188.062 215.092 185.659 212.164 184.24 208.738C182.821 205.312 182.449 201.542 183.173 197.905C183.896 194.267 185.682 190.926 188.304 188.304C190.926 185.682 194.267 183.896 197.905 183.173C201.542 182.449 205.312 182.821 208.738 184.24C212.164 185.659 215.092 188.062 217.153 191.146C219.213 194.229 220.313 197.854 220.313 201.562C220.313 206.535 218.337 211.304 214.821 214.821C211.304 218.337 206.535 220.312 201.563 220.312Z" fill="url(#paint8_linear_703_119)"/>
<path d="M132.805 231.564C124.864 213.327 124.485 192.683 131.751 174.167C139.017 155.65 153.335 140.774 171.561 132.805L175.314 141.396C159.367 148.369 146.839 161.386 140.48 177.587C134.12 193.789 134.45 211.852 141.396 227.811L132.805 231.564Z" fill="url(#paint9_linear_703_119)"/>
<path d="M184.06 138.296L181.565 129.259C184.849 128.354 188.192 127.674 191.569 127.223L192.806 136.516C189.854 136.91 186.931 137.505 184.06 138.296V138.296Z" fill="url(#paint10_linear_703_119)"/>
<path d="M103.125 271.875H243.75C248.723 271.875 253.492 269.899 257.008 266.383C260.524 262.867 262.5 258.098 262.5 253.125V131.25C262.5 129.637 262.293 128.031 261.883 126.472C254.805 207.947 186.436 271.875 103.125 271.875Z" fill="url(#paint11_linear_703_119)"/>
<path d="M197.775 29.0247C184.975 77.088 141.158 112.5 89.0626 112.5H201.562V36.6957C201.562 34.2093 200.575 31.8248 198.817 30.0666L197.775 29.0247Z" fill="url(#paint12_linear_703_119)"/>
<path d="M187.5 75V65.625H180.436C178.095 68.8814 175.582 72.0108 172.908 75H187.5Z" fill="#13F01C" fill-opacity="0.35"/>
<path d="M143.555 98.4375H187.5V89.0625H157.792C153.29 92.5426 148.531 95.6766 143.555 98.4375Z" fill="#13F01C" fill-opacity="0.35"/>
<path d="M225 75V65.625H217.936C215.595 68.8814 213.082 72.0108 210.408 75H225Z" fill="#13F01C" fill-opacity="0.35"/>
<path d="M192.678 244.338L194.785 253.125H208.339L211.444 240.176C215.819 238.363 217.488 237.671 221.862 235.859L233.259 242.842C238.438 237.663 237.662 238.439 242.842 233.259L235.858 221.862C237.671 217.488 238.363 215.819 240.175 211.444L253.125 208.339V194.786L241.293 191.949C229.241 212.851 212.623 230.759 192.678 244.338V244.338Z" fill="#2D2D2D"/>
<path d="M231.564 270.32L227.811 261.729C243.758 254.756 256.286 241.74 262.645 225.538C269.005 209.336 268.675 191.273 261.729 175.314L270.32 171.561C278.261 189.798 278.64 210.442 271.374 228.958C264.108 247.475 249.79 262.351 231.564 270.32Z" fill="url(#paint13_linear_703_119)"/>
<path d="M211.557 275.902L210.318 266.609C213.271 266.215 216.193 265.62 219.065 264.829L221.56 273.866C218.276 274.771 214.934 275.451 211.557 275.902Z" fill="url(#paint14_linear_703_119)"/>
<defs>
<linearGradient id="paint0_linear_703_119" x1="283.286" y1="123.911" x2="354.669" y2="194.807" gradientUnits="userSpaceOnUse">
<stop stop-color="#0D8111"/>
<stop offset="1" stop-color="#00FF0A" stop-opacity="0.96"/>
</linearGradient>
<linearGradient id="paint1_linear_703_119" x1="-9.0625" y1="76.4375" x2="73.4375" y2="291.438" gradientUnits="userSpaceOnUse">
<stop offset="0.0174204" stop-color="#09810E"/>
<stop offset="1" stop-color="#13F01C"/>
</linearGradient>
<linearGradient id="paint2_linear_703_119" x1="123.938" y1="-12.5625" x2="214.938" y2="112.937" gradientUnits="userSpaceOnUse">
<stop stop-color="#075F0A"/>
<stop offset="1" stop-color="#00FF0A"/>
</linearGradient>
<linearGradient id="paint3_linear_703_119" x1="190.938" y1="43.9375" x2="257.437" y2="112.938" gradientUnits="userSpaceOnUse">
<stop stop-color="#07650B"/>
<stop offset="1" stop-color="#13F01C"/>
</linearGradient>
<linearGradient id="paint4_linear_703_119" x1="201.937" y1="9.9375" x2="219.938" y2="32.9375" gradientUnits="userSpaceOnUse">
<stop stop-color="#096B0D"/>
<stop offset="1" stop-color="#03FF0D"/>
</linearGradient>
<linearGradient id="paint5_linear_703_119" x1="38.4375" y1="5.4375" x2="201.937" y2="122.937" gradientUnits="userSpaceOnUse">
<stop stop-color="#08720C"/>
<stop offset="1" stop-color="#11FF1B" stop-opacity="0"/>
</linearGradient>
<linearGradient id="paint6_linear_703_119" x1="163.938" y1="-0.0625005" x2="195.938" y2="36.9375" gradientUnits="userSpaceOnUse">
<stop stop-color="#13F01C"/>
<stop offset="1" stop-color="#13F01C" stop-opacity="0"/>
</linearGradient>
<linearGradient id="paint7_linear_703_119" x1="32.9375" y1="134.438" x2="190.937" y2="294.438" gradientUnits="userSpaceOnUse">
<stop stop-color="#0D8111"/>
<stop offset="1" stop-color="#00FF0A" stop-opacity="0.96"/>
</linearGradient>
<linearGradient id="paint8_linear_703_119" x1="155.937" y1="161.938" x2="218.438" y2="252.938" gradientUnits="userSpaceOnUse">
<stop stop-color="#050505"/>
<stop offset="1" stop-color="#4F4949"/>
</linearGradient>
<linearGradient id="paint9_linear_703_119" x1="115.438" y1="132.937" x2="150.938" y2="231.564" gradientUnits="userSpaceOnUse">
<stop offset="0.020351" stop-color="#045307"/>
<stop offset="1" stop-color="#13F01C"/>
</linearGradient>
<linearGradient id="paint10_linear_703_119" x1="175.938" y1="121.937" x2="203.438" y2="148.437" gradientUnits="userSpaceOnUse">
<stop stop-color="#095B0C"/>
<stop offset="1" stop-color="#13F01C"/>
</linearGradient>
<linearGradient id="paint11_linear_703_119" x1="202.438" y1="205.438" x2="271.938" y2="286.438" gradientUnits="userSpaceOnUse">
<stop offset="0.0217362" stop-color="#0C8611"/>
<stop offset="1" stop-color="#13F01C"/>
</linearGradient>
<linearGradient id="paint12_linear_703_119" x1="159.437" y1="61.9375" x2="201.938" y2="121.938" gradientUnits="userSpaceOnUse">
<stop stop-color="#107614"/>
<stop offset="1" stop-color="#13F01C"/>
</linearGradient>
<linearGradient id="paint13_linear_703_119" x1="304.438" y1="166.938" x2="248.937" y2="272.437" gradientUnits="userSpaceOnUse">
<stop stop-color="#0A550D"/>
<stop offset="1" stop-color="#13F01C"/>
</linearGradient>
<linearGradient id="paint14_linear_703_119" x1="209.937" y1="254.937" x2="244.938" y2="283.938" gradientUnits="userSpaceOnUse">
<stop stop-color="#07620B"/>
<stop offset="1" stop-color="#07FF11" stop-opacity="0"/>
</linearGradient>
</defs>
</svg>
