<svg width="300" height="300" viewBox="0 0 300 300" fill="none" xmlns="http://www.w3.org/2000/svg">
<path d="M234.375 84.375H32.8125C22.4572 84.375 14.0625 92.7697 14.0625 103.125V267.188C14.0625 277.543 22.4572 285.938 32.8125 285.938H234.375C244.73 285.938 253.125 277.543 253.125 267.188V103.125C253.125 92.7697 244.73 84.375 234.375 84.375Z" fill="url(#paint0_linear_12_67)"/>
<path d="M250.379 44.1291L223.058 16.8084C222.188 15.9378 221.154 15.2473 220.017 14.7761C218.879 14.305 217.66 14.0625 216.429 14.0625H112.5C110.014 14.0625 107.629 15.0502 105.871 16.8084C104.113 18.5665 103.125 20.9511 103.125 23.4375V131.25H253.125V50.7582C253.125 48.2718 252.137 45.8873 250.379 44.1291Z" fill="url(#paint1_linear_12_67)"/>
<path d="M249.337 43.0872C236.537 91.1505 192.72 126.562 140.625 126.562H253.125V50.7582C253.125 48.2718 252.137 45.8873 250.379 44.1291L249.337 43.0872Z" fill="url(#paint2_linear_12_67)"/>
<path d="M239.062 79.6875H215.625V89.0625H239.062V79.6875Z" fill="#13F01C" fill-opacity="0.35"/>
<path d="M239.062 103.125H215.625V112.5H239.062V103.125Z" fill="#13F01C" fill-opacity="0.35"/>
<path d="M250.379 44.1291L223.058 16.8084C222.188 15.9378 221.154 15.2473 220.017 14.7761C218.879 14.305 217.66 14.0625 216.429 14.0625H215.625V37.5C215.625 39.9864 216.613 42.371 218.371 44.1291C220.129 45.8873 222.514 46.875 225 46.875H252.272C251.81 45.8538 251.169 44.9238 250.379 44.1291V44.1291Z" fill="url(#paint3_linear_12_67)"/>
<path d="M212.879 44.1291L185.558 16.8084C184.688 15.9378 183.654 15.2473 182.517 14.7761C181.379 14.305 180.16 14.0625 178.929 14.0625H75C72.5136 14.0625 70.129 15.0502 68.3709 16.8084C66.6127 18.5665 65.625 20.9511 65.625 23.4375V131.25H215.625V50.7582C215.625 48.2718 214.637 45.8873 212.879 44.1291Z" fill="url(#paint4_linear_12_67)"/>
<path d="M173.438 56.25H79.6875V65.625H173.438V56.25Z" fill="#13F01C" fill-opacity="0.35"/>
<path d="M201.562 79.6875H79.6875V89.0625H201.562V79.6875Z" fill="#13F01C" fill-opacity="0.35"/>
<path d="M201.562 103.125H79.6875V112.5H201.562V103.125Z" fill="#13F01C" fill-opacity="0.35"/>
<path d="M164.062 32.8125H79.6875V42.1875H164.062V32.8125Z" fill="#13F01C" fill-opacity="0.35"/>
<path d="M212.879 44.1291L185.558 16.8084C184.688 15.9378 183.654 15.2473 182.517 14.7761C181.379 14.305 180.16 14.0625 178.929 14.0625H178.125V37.5C178.125 39.9864 179.113 42.371 180.871 44.1291C182.629 45.8873 185.014 46.875 187.5 46.875H214.772C214.31 45.8538 213.669 44.9238 212.879 44.1291V44.1291Z" fill="url(#paint5_linear_12_67)"/>
<path d="M257.812 126.562H70.3125C65.3397 126.562 60.5706 128.538 57.0542 132.054C53.5379 135.571 51.5625 140.34 51.5625 145.312V267.188C51.5625 272.16 49.5871 276.929 46.0708 280.446C42.5544 283.962 37.7853 285.938 32.8125 285.938H257.812C262.785 285.938 267.554 283.962 271.071 280.446C274.587 276.929 276.562 272.16 276.562 267.188V145.312C276.562 140.34 274.587 135.571 271.071 132.054C267.554 128.538 262.785 126.562 257.812 126.562Z" fill="url(#paint6_linear_12_67)"/>
<path d="M267.187 222.402V208.848L254.238 205.743C252.425 201.369 251.734 199.7 249.921 195.325L256.905 183.928C251.725 178.749 252.501 179.525 247.322 174.345L235.925 181.329L225.507 177.012L222.402 164.062H208.848L205.743 177.012C201.369 178.824 199.7 179.516 195.325 181.329L183.928 174.345C178.749 179.525 179.525 178.749 174.345 183.928L181.329 195.325C179.516 199.7 178.824 201.369 177.012 205.743L164.062 208.848V222.402L177.011 225.507C178.824 229.881 179.516 231.55 181.329 235.925L174.345 247.322C179.524 252.501 178.748 251.725 183.928 256.905L195.325 249.921C199.7 251.734 201.369 252.425 205.743 254.238L208.848 267.188H222.402L225.507 254.238C229.881 252.426 231.55 251.734 235.925 249.921L247.321 256.905C252.501 251.725 251.725 252.501 256.905 247.322L249.921 235.925C251.734 231.55 252.425 229.881 254.238 225.507L267.187 222.402ZM215.625 234.375C211.917 234.375 208.291 233.275 205.208 231.215C202.125 229.155 199.721 226.226 198.302 222.8C196.883 219.374 196.512 215.604 197.235 211.967C197.959 208.33 199.745 204.989 202.367 202.367C204.989 199.745 208.33 197.959 211.967 197.235C215.604 196.512 219.374 196.883 222.8 198.302C226.226 199.721 229.155 202.125 231.215 205.208C233.275 208.291 234.375 211.917 234.375 215.625C234.375 220.598 232.4 225.367 228.883 228.883C225.367 232.4 220.598 234.375 215.625 234.375Z" fill="url(#paint7_linear_12_67)"/>
<path d="M146.867 245.627C138.926 227.389 138.547 206.746 145.814 188.229C153.08 169.712 167.398 154.836 185.623 146.867L189.377 155.459C173.43 162.432 160.901 175.448 154.542 191.65C148.183 207.851 148.513 225.914 155.459 241.873L146.867 245.627Z" fill="url(#paint8_linear_12_67)"/>
<path d="M198.122 152.359L195.628 143.322C198.912 142.416 202.254 141.736 205.631 141.286L206.869 150.579C203.916 150.972 200.994 151.567 198.122 152.359V152.359Z" fill="url(#paint9_linear_12_67)"/>
<path d="M117.188 285.937H257.812C262.785 285.937 267.554 283.962 271.071 280.446C274.587 276.929 276.562 272.16 276.562 267.187V145.312C276.563 143.7 276.356 142.094 275.946 140.534C268.868 222.01 200.499 285.937 117.188 285.937Z" fill="url(#paint10_linear_12_67)"/>
<path d="M211.837 43.0872C199.037 91.1505 155.22 126.562 103.125 126.562H215.625V50.7582C215.625 48.2718 214.637 45.8873 212.879 44.1291L211.837 43.0872Z" fill="url(#paint11_linear_12_67)"/>
<path d="M201.562 89.0625V79.6875H194.499C192.157 82.9439 189.644 86.0733 186.97 89.0625H201.562Z" fill="#13F01C" fill-opacity="0.35"/>
<path d="M157.618 112.5H201.562V103.125H171.855C167.353 106.605 162.593 109.739 157.618 112.5Z" fill="#13F01C" fill-opacity="0.35"/>
<path d="M239.062 89.0625V79.6875H231.999C229.657 82.9439 227.144 86.0733 224.47 89.0625H239.062Z" fill="#13F01C" fill-opacity="0.35"/>
<path d="M206.741 258.4L208.848 267.187H222.402L225.507 254.238C229.881 252.425 231.55 251.734 235.925 249.921L247.321 256.905C252.501 251.725 251.725 252.501 256.905 247.322L249.921 235.925C251.734 231.55 252.425 229.881 254.238 225.507L267.187 222.402V208.848L255.356 206.011C243.304 226.913 226.685 244.822 206.741 258.4V258.4Z" fill="#2D2D2D"/>
<path d="M245.627 284.382L241.873 275.791C257.82 268.818 270.349 255.802 276.708 239.6C283.067 223.399 282.737 205.336 275.791 189.377L284.382 185.623C292.324 203.86 292.703 224.504 285.437 243.021C278.17 261.537 263.852 276.414 245.627 284.382Z" fill="url(#paint12_linear_12_67)"/>
<path d="M225.619 289.964L224.381 280.672C227.333 280.278 230.256 279.683 233.128 278.891L235.622 287.928C232.338 288.834 228.996 289.514 225.619 289.964Z" fill="url(#paint13_linear_12_67)"/>
<defs>
<linearGradient id="paint0_linear_12_67" x1="5" y1="90.5" x2="87.5" y2="305.5" gradientUnits="userSpaceOnUse">
<stop offset="0.0174204" stop-color="#09810E"/>
<stop offset="1" stop-color="#13F01C"/>
</linearGradient>
<linearGradient id="paint1_linear_12_67" x1="138" y1="1.5" x2="229" y2="127" gradientUnits="userSpaceOnUse">
<stop stop-color="#075F0A"/>
<stop offset="1" stop-color="#00FF0A"/>
</linearGradient>
<linearGradient id="paint2_linear_12_67" x1="205" y1="58" x2="271.5" y2="127" gradientUnits="userSpaceOnUse">
<stop stop-color="#07650B"/>
<stop offset="1" stop-color="#13F01C"/>
</linearGradient>
<linearGradient id="paint3_linear_12_67" x1="216" y1="24" x2="234" y2="47" gradientUnits="userSpaceOnUse">
<stop stop-color="#096B0D"/>
<stop offset="1" stop-color="#03FF0D"/>
</linearGradient>
<linearGradient id="paint4_linear_12_67" x1="52.5" y1="19.5" x2="216" y2="137" gradientUnits="userSpaceOnUse">
<stop stop-color="#08720C"/>
<stop offset="1" stop-color="#11FF1B" stop-opacity="0"/>
</linearGradient>
<linearGradient id="paint5_linear_12_67" x1="178" y1="14" x2="210" y2="51" gradientUnits="userSpaceOnUse">
<stop stop-color="#13F01C"/>
<stop offset="1" stop-color="#13F01C" stop-opacity="0"/>
</linearGradient>
<linearGradient id="paint6_linear_12_67" x1="47" y1="148.5" x2="205" y2="308.5" gradientUnits="userSpaceOnUse">
<stop stop-color="#0D8111"/>
<stop offset="1" stop-color="#00FF0A" stop-opacity="0.96"/>
</linearGradient>
<linearGradient id="paint7_linear_12_67" x1="170" y1="176" x2="232.5" y2="267" gradientUnits="userSpaceOnUse">
<stop stop-color="#050505"/>
<stop offset="1" stop-color="#4F4949"/>
</linearGradient>
<linearGradient id="paint8_linear_12_67" x1="129.5" y1="147" x2="165.001" y2="245.627" gradientUnits="userSpaceOnUse">
<stop offset="0.020351" stop-color="#045307"/>
<stop offset="1" stop-color="#13F01C"/>
</linearGradient>
<linearGradient id="paint9_linear_12_67" x1="190" y1="136" x2="217.5" y2="162.5" gradientUnits="userSpaceOnUse">
<stop stop-color="#095B0C"/>
<stop offset="1" stop-color="#13F01C"/>
</linearGradient>
<linearGradient id="paint10_linear_12_67" x1="216.5" y1="219.5" x2="286" y2="300.5" gradientUnits="userSpaceOnUse">
<stop offset="0.0217362" stop-color="#0C8611"/>
<stop offset="1" stop-color="#13F01C"/>
</linearGradient>
<linearGradient id="paint11_linear_12_67" x1="173.5" y1="76" x2="216" y2="136" gradientUnits="userSpaceOnUse">
<stop stop-color="#107614"/>
<stop offset="1" stop-color="#13F01C"/>
</linearGradient>
<linearGradient id="paint12_linear_12_67" x1="318.5" y1="181" x2="263" y2="286.5" gradientUnits="userSpaceOnUse">
<stop stop-color="#0A550D"/>
<stop offset="1" stop-color="#13F01C"/>
</linearGradient>
<linearGradient id="paint13_linear_12_67" x1="224" y1="269" x2="259" y2="298" gradientUnits="userSpaceOnUse">
<stop stop-color="#07620B"/>
<stop offset="1" stop-color="#07FF11" stop-opacity="0"/>
</linearGradient>
</defs>
</svg>
