<svg width="31" height="31" viewBox="0 0 31 31" fill="none" xmlns="http://www.w3.org/2000/svg">
<g clip-path="url(#clip0_322_34)">
<path d="M26.6128 4.15955H4.38723C1.96838 4.15955 0 6.12793 0 8.54738V22.4526C0 24.872 1.96838 26.8404 4.38723 26.8404H26.6128C29.0316 26.8404 31 24.872 31 22.4526V8.54738C31 6.12793 29.0316 4.15955 26.6128 4.15955V4.15955ZM11.2502 11.14L6.63473 15.7555L10.7392 19.86C11.094 20.2148 11.094 20.79 10.7392 21.1442C10.385 21.499 9.8098 21.499 9.455 21.1442L4.70813 16.3973C4.35332 16.0425 4.35332 15.4679 4.70813 15.1131L9.96541 9.8558C10.3202 9.50099 10.8954 9.50099 11.2502 9.8558C11.6044 10.21 11.6044 10.7852 11.2502 11.14V11.14ZM18.7417 9.0033L13.9391 22.6015C13.772 23.075 13.2531 23.3226 12.7802 23.1555C12.3074 22.9884 12.0591 22.4695 12.2262 21.9967L17.0288 8.39843C17.1959 7.92556 17.7142 7.67732 18.1877 7.84443C18.6605 8.01154 18.9088 8.53043 18.7417 9.0033V9.0033ZM26.2919 15.8869L21.0346 21.1442C20.6798 21.499 20.1046 21.499 19.7498 21.1442C19.3956 20.79 19.3956 20.2148 19.7498 19.86L24.3653 15.2445L20.2608 11.14C19.906 10.7852 19.906 10.21 20.2608 9.8558C20.615 9.50099 21.1902 9.50099 21.545 9.8558L26.2919 14.6027C26.6467 14.9575 26.6467 15.5321 26.2919 15.8869V15.8869Z" fill="url(#paint0_linear_322_34)"/>
</g>
<defs>
<linearGradient id="paint0_linear_322_34" x1="-12.9167" y1="15.5" x2="29.9237" y2="38.4468" gradientUnits="userSpaceOnUse">
<stop stop-color="#0B3E0D"/>
<stop offset="1" stop-color="#13F01C"/>
</linearGradient>
<clipPath id="clip0_322_34">
<rect width="31" height="31" fill="white"/>
</clipPath>
</defs>
</svg>
