<svg width="400" height="200" viewBox="0 0 400 200" fill="none" xmlns="http://www.w3.org/2000/svg">
<g clip-path="url(#clip0_705_48)">
<path d="M0 0H400.008V200.004H0V0Z" fill="#000066"/>
<path d="M0.00133336 0.00133336V22.3624L355.288 200.006H400.011V177.645L44.7236 0.00133336H0.00133336V0.00133336ZM400.009 0.00133336V22.3618L44.7222 200.005H0V177.644L355.287 0H400.009V0.00133336Z" fill="white"/>
<path d="M166.67 0V200.004H233.338V0H166.67ZM0 66.668V133.336H400.008V66.668H0Z" fill="white"/>
<path d="M0 80.0016V120.002H400.008V80.0016H0ZM180.004 0V200.004H220.004V0H180.004Z" fill="#CC0000"/>
<path d="M0.00066668 200.004L133.337 133.336H163.151L29.8153 200.004H0.00066668V200.004ZM0.00066668 0L133.337 66.668H103.522L0 14.9076V0L0.00066668 0ZM236.859 66.668L370.195 0H400.009L266.673 66.668H236.859ZM400.009 200.004L266.673 133.336H296.487L400.009 185.096V200.004H400.009Z" fill="#CC0000"/>
</g>
<defs>
<clipPath id="clip0_705_48">
<rect width="400" height="200" fill="white"/>
</clipPath>
</defs>
</svg>
