<svg width="109" height="31" viewBox="0 0 109 31" fill="none" xmlns="http://www.w3.org/2000/svg">
<path d="M42.68 25L38.024 12.088H41.552L45.416 23.2H43.736L47.768 12.088H50.936L54.848 23.2H53.168L57.152 12.088H60.464L55.784 25H52.16L48.728 15.472H49.832L46.28 25H42.68ZM68.261 25.192C66.789 25.192 65.493 24.904 64.373 24.328C63.269 23.752 62.413 22.968 61.805 21.976C61.197 20.968 60.893 19.824 60.893 18.544C60.893 17.248 61.189 16.104 61.781 15.112C62.389 14.104 63.213 13.32 64.253 12.76C65.293 12.184 66.469 11.896 67.781 11.896C69.045 11.896 70.181 12.168 71.189 12.712C72.213 13.24 73.021 14.008 73.613 15.016C74.205 16.008 74.501 17.2 74.501 18.592C74.501 18.736 74.493 18.904 74.477 19.096C74.461 19.272 74.445 19.44 74.429 19.6H63.941V17.416H72.461L71.021 18.064C71.021 17.392 70.885 16.808 70.613 16.312C70.341 15.816 69.965 15.432 69.485 15.16C69.005 14.872 68.445 14.728 67.805 14.728C67.165 14.728 66.597 14.872 66.101 15.16C65.621 15.432 65.245 15.824 64.973 16.336C64.701 16.832 64.565 17.424 64.565 18.112V18.688C64.565 19.392 64.717 20.016 65.021 20.56C65.341 21.088 65.781 21.496 66.341 21.784C66.917 22.056 67.589 22.192 68.357 22.192C69.045 22.192 69.645 22.088 70.157 21.88C70.685 21.672 71.165 21.36 71.597 20.944L73.589 23.104C72.997 23.776 72.253 24.296 71.357 24.664C70.461 25.016 69.429 25.192 68.261 25.192ZM84.6256 25.192C83.4896 25.192 82.5136 24.952 81.6976 24.472C80.8816 23.992 80.2576 23.264 79.8256 22.288C79.3936 21.296 79.1776 20.048 79.1776 18.544C79.1776 17.024 79.4016 15.776 79.8496 14.8C80.3136 13.824 80.9536 13.096 81.7696 12.616C82.5856 12.136 83.5376 11.896 84.6256 11.896C85.8416 11.896 86.9296 12.168 87.8896 12.712C88.8656 13.256 89.6336 14.024 90.1936 15.016C90.7696 16.008 91.0576 17.184 91.0576 18.544C91.0576 19.888 90.7696 21.056 90.1936 22.048C89.6336 23.04 88.8656 23.816 87.8896 24.376C86.9296 24.92 85.8416 25.192 84.6256 25.192ZM76.9936 25V7.192H80.7376V14.704L80.4976 18.52L80.5696 22.36V25H76.9936ZM83.9776 22.12C84.6016 22.12 85.1536 21.976 85.6336 21.688C86.1296 21.4 86.5216 20.992 86.8096 20.464C87.1136 19.92 87.2656 19.28 87.2656 18.544C87.2656 17.792 87.1136 17.152 86.8096 16.624C86.5216 16.096 86.1296 15.688 85.6336 15.4C85.1536 15.112 84.6016 14.968 83.9776 14.968C83.3536 14.968 82.7936 15.112 82.2976 15.4C81.8016 15.688 81.4096 16.096 81.1216 16.624C80.8336 17.152 80.6896 17.792 80.6896 18.544C80.6896 19.28 80.8336 19.92 81.1216 20.464C81.4096 20.992 81.8016 21.4 82.2976 21.688C82.7936 21.976 83.3536 22.12 83.9776 22.12ZM94.0199 25V11.8C94.0199 10.344 94.4519 9.184 95.3159 8.32C96.1799 7.44 97.4119 7 99.0119 7C99.5559 7 100.076 7.056 100.572 7.168C101.084 7.28 101.516 7.456 101.868 7.696L100.884 10.408C100.676 10.264 100.444 10.152 100.188 10.072C99.9319 9.992 99.6599 9.952 99.3719 9.952C98.8279 9.952 98.4039 10.112 98.0999 10.432C97.8119 10.736 97.6679 11.2 97.6679 11.824V13.024L97.7639 14.632V25H94.0199ZM92.0279 15.256V12.376H100.98V15.256H92.0279ZM103.092 25V7.192H106.836V25H103.092Z" fill="url(#paint0_linear_207_78)"/>
<g clip-path="url(#clip0_207_78)">
<path d="M26.6128 4.15955H4.38723C1.96838 4.15955 0 6.12793 0 8.54738V22.4526C0 24.872 1.96838 26.8404 4.38723 26.8404H26.6128C29.0316 26.8404 31 24.872 31 22.4526V8.54738C31 6.12793 29.0316 4.15955 26.6128 4.15955ZM11.2502 11.14L6.63473 15.7555L10.7392 19.86C11.094 20.2148 11.094 20.79 10.7392 21.1442C10.385 21.499 9.8098 21.499 9.455 21.1442L4.70813 16.3973C4.35332 16.0425 4.35332 15.4679 4.70813 15.1131L9.96541 9.8558C10.3202 9.50099 10.8954 9.50099 11.2502 9.8558C11.6044 10.21 11.6044 10.7852 11.2502 11.14ZM18.7417 9.0033L13.9391 22.6015C13.772 23.075 13.2531 23.3226 12.7802 23.1555C12.3074 22.9884 12.0591 22.4695 12.2262 21.9967L17.0288 8.39843C17.1959 7.92556 17.7142 7.67732 18.1877 7.84443C18.6605 8.01154 18.9088 8.53043 18.7417 9.0033ZM26.2919 15.8869L21.0346 21.1442C20.6798 21.499 20.1046 21.499 19.7498 21.1442C19.3956 20.79 19.3956 20.2148 19.7498 19.86L24.3653 15.2445L20.2608 11.14C19.906 10.7852 19.906 10.21 20.2608 9.8558C20.615 9.50099 21.1902 9.50099 21.545 9.8558L26.2919 14.6027C26.6467 14.9575 26.6467 15.5321 26.2919 15.8869Z" fill="url(#paint1_linear_207_78)"/>
</g>
<defs>
<linearGradient id="paint0_linear_207_78" x1="8.41667" y1="16.5" x2="74.1624" y2="79.5804" gradientUnits="userSpaceOnUse">
<stop stop-color="#0B3E0D"/>
<stop offset="1" stop-color="#13F01C"/>
</linearGradient>
<linearGradient id="paint1_linear_207_78" x1="-12.9167" y1="15.5" x2="29.9237" y2="38.4468" gradientUnits="userSpaceOnUse">
<stop stop-color="#0B3E0D"/>
<stop offset="1" stop-color="#13F01C"/>
</linearGradient>
<clipPath id="clip0_207_78">
<rect width="31" height="31" fill="white"/>
</clipPath>
</defs>
</svg>
