<svg width="28" height="28" viewBox="0 0 28 28" fill="" xmlns="http://www.w3.org/2000/svg">
<symbol id="tg-original" viewbox="0 0 48 48">
<path d="M0 14C0 6.26801 6.26801 0 14 0C21.732 0 28 6.26801 28 14C28 21.732 21.732 28 14 28C6.26801 28 0 21.732 0 14Z" fill="#419FD9"/>
<path fill-rule="evenodd" clip-rule="evenodd" d="M17.1124 20.9325C18.0909 21.3606 18.4579 20.4636 18.4579 20.4636L21.0469 7.4571C21.0266 6.58048 19.8441 7.11053 19.8441 7.11053L5.34941 12.7983C5.34941 12.7983 4.65627 13.043 4.71743 13.4711C4.77859 13.8992 5.32902 14.1031 5.32902 14.1031L8.97819 15.3263C8.97819 15.3263 10.0791 18.9346 10.3033 19.6278C10.5072 20.3005 10.6906 20.3209 10.6906 20.3209C10.8945 20.4025 11.078 20.2598 11.078 20.2598L13.4428 18.1192L17.1124 20.9325ZM17.7444 9.76074C17.7444 9.76074 18.254 9.45494 18.2336 9.76074C18.2336 9.76074 18.3152 9.80151 18.0501 10.0869C17.8055 10.3316 12.0362 15.5097 11.2615 16.2028C11.2003 16.2436 11.1595 16.3048 11.1595 16.3863L10.9353 18.3026C10.8945 18.5065 10.6295 18.5269 10.5683 18.3434L9.61017 15.2039C9.5694 15.0816 9.61017 14.9389 9.73249 14.8573L17.7444 9.76074Z"/>
</symbol>
</svg>
