<svg width="28" height="28" viewbox="0 0 28 28" fill="" xmlns="http://www.w3.org/2000/svg">
<symbol id="vbr-original" viewbox="0 0 48 48">
<path d="M0 14C0 6.26801 6.26801 0 14 0V0C21.732 0 28 6.26801 28 14V14C28 21.732 21.732 28 14 28V28C6.26801 28 0 21.732 0 14V14Z" fill="#675DA9"/>
<path d="M20.8563 7.10766C20.3932 6.6819 18.5183 5.31874 14.3392 5.30007C14.3392 5.30007 9.41315 5.00129 7.01174 7.20476C5.67472 8.54178 5.20415 10.495 5.15559 12.9226C5.10704 15.3464 5.04355 19.8915 9.42436 21.124H9.42809L9.42436 23.0025C9.42436 23.0025 9.39821 23.7644 9.89866 23.9175C10.5037 24.1043 10.8622 23.5254 11.4411 22.9017C11.7585 22.5581 12.1955 22.0577 12.5279 21.673C15.5231 21.9232 17.8274 21.3481 18.0889 21.2622C18.6939 21.0642 22.1186 20.6273 22.6751 16.0821C23.2502 11.4063 22.395 8.44468 20.8563 7.10766ZM21.3642 15.7535C20.8936 19.5479 18.1187 19.787 17.6071 19.9513C17.3905 20.0223 15.3663 20.5264 12.8192 20.3584C12.8192 20.3584 10.922 22.6477 10.3319 23.2416C10.2385 23.3349 10.1302 23.3723 10.0593 23.3536C9.95842 23.3275 9.92854 23.2079 9.93227 23.0324C9.93227 22.7785 9.94721 19.9065 9.94721 19.9065C9.94348 19.9065 9.94348 19.9065 9.94721 19.9065C6.23866 18.8794 6.45527 15.0103 6.49635 12.9861C6.53743 10.9619 6.91837 9.29993 8.04999 8.18325C10.0779 6.34578 14.2645 6.61841 14.2645 6.61841C17.7976 6.63335 19.4894 7.69774 19.8815 8.05254C21.1849 9.17295 21.8497 11.8433 21.3642 15.7535Z"/>
<path d="M16.0609 13.057C15.9377 13.057 15.8331 12.9599 15.8256 12.833C15.7846 12.03 15.4074 11.6378 14.638 11.5968C14.5073 11.5893 14.4065 11.4773 14.4139 11.3465C14.4214 11.2158 14.5334 11.115 14.6642 11.1225C15.68 11.1785 16.2477 11.7611 16.3 12.8068C16.3074 12.9375 16.2066 13.0496 16.0759 13.0533C16.0684 13.057 16.0647 13.057 16.0609 13.057Z"/>
<path d="M17.271 13.4605H17.2672C17.1365 13.4568 17.0319 13.3484 17.0357 13.2177C17.0543 12.411 16.8228 11.7575 16.3298 11.2197C15.8406 10.6819 15.1646 10.3906 14.272 10.3271C14.1413 10.3159 14.0442 10.2038 14.0554 10.0731C14.0666 9.9424 14.1786 9.8453 14.3093 9.8565C15.3177 9.9312 16.1132 10.2823 16.6809 10.9022C17.2523 11.5259 17.5287 12.3065 17.51 13.2289C17.5062 13.3596 17.3979 13.4605 17.271 13.4605Z"/>
<path d="M18.5109 13.9459C18.3802 13.9459 18.2756 13.8413 18.2756 13.7106C18.2644 12.2653 17.8498 11.1635 17.0058 10.3382C16.1729 9.52399 15.116 9.10944 13.8724 9.09824C13.7417 9.09824 13.6371 8.98993 13.6371 8.85922C13.6371 8.7285 13.7454 8.62393 13.8724 8.62393C15.243 8.63514 16.4082 9.0945 17.3307 9.9983C18.2569 10.9021 18.7312 12.1495 18.7462 13.7031C18.7499 13.8376 18.6453 13.9459 18.5109 13.9459C18.5146 13.9459 18.5146 13.9459 18.5109 13.9459Z"/>
<path d="M14.694 15.9813C14.694 15.9813 15.0264 16.0111 15.2057 15.7908L15.553 15.3538C15.7211 15.1372 16.1281 14.999 16.524 15.2194C16.7444 15.3426 17.144 15.5891 17.3905 15.7721C17.6556 15.9663 18.1934 16.4145 18.1972 16.4182C18.4549 16.6348 18.5146 16.9523 18.3391 17.2921C18.3391 17.2921 18.3391 17.2959 18.3391 17.2996C18.1598 17.6171 17.9171 17.9158 17.6145 18.1922C17.6108 18.1922 17.6108 18.1959 17.6071 18.1959C17.3569 18.4051 17.1104 18.5246 16.8713 18.5507C16.8415 18.5582 16.8079 18.5582 16.763 18.5582C16.6585 18.5582 16.5539 18.5433 16.4493 18.5097L16.4419 18.4984C16.0684 18.3939 15.4484 18.1324 14.4176 17.561C13.7454 17.1913 13.1889 16.8141 12.7146 16.4369C12.4644 16.239 12.2104 16.0186 11.949 15.7572C11.9415 15.7497 11.9303 15.7385 11.9229 15.731C11.9154 15.7236 11.9042 15.7124 11.8967 15.7049C11.8893 15.6974 11.878 15.6862 11.8706 15.6787C11.8631 15.6713 11.8519 15.6601 11.8444 15.6526C11.5867 15.3912 11.3627 15.1372 11.1647 14.887C10.7875 14.4164 10.4103 13.8562 10.0406 13.184C9.46917 12.1495 9.20774 11.5295 9.10317 11.1598L9.09196 11.1523C9.05835 11.0477 9.04341 10.9432 9.04341 10.8386C9.04341 10.7938 9.04341 10.7602 9.05088 10.7303C9.08076 10.4875 9.20027 10.2448 9.40568 9.99454C9.40568 9.9908 9.40941 9.9908 9.40941 9.98707C9.68578 9.68082 9.98456 9.4418 10.302 9.26254C10.302 9.26254 10.3057 9.26254 10.3095 9.26254C10.6456 9.08701 10.963 9.14676 11.1834 9.40445C11.1834 9.40445 11.6353 9.94599 11.8295 10.2111C12.0125 10.4614 12.259 10.8573 12.3822 11.0776C12.6026 11.4735 12.4644 11.8806 12.2478 12.0486L11.8108 12.3959C11.5905 12.5752 11.6204 12.9076 11.6204 12.9076C11.6204 12.9076 12.2665 15.365 14.694 15.9813Z"/>
</symbol>
</svg>
